<!--?xml version="1.0" encoding="UTF-8" standalone="no"?-->
<!-- Created with Inkscape (http://www.inkscape.org/) -->
<svg xmlns:inkscape="http://www.inkscape.org/namespaces/inkscape" xmlns:rdf="http://www.w3.org/1999/02/22-rdf-syntax-ns#" xmlns="http://www.w3.org/2000/svg" xmlns:sodipodi="http://sodipodi.sourceforge.net/DTD/sodipodi-0.dtd" xmlns:cc="http://web.resource.org/cc/" xmlns:xlink="http://www.w3.org/1999/xlink" xmlns:dc="http://purl.org/dc/elements/1.1/" xmlns:svg="http://www.w3.org/2000/svg" xmlns:ns1="http://sozi.baierouge.fr" id="svg2" sodipodi:docname="jongalloway_Pluged_in_coder.svg" inkscape:export-filename="C:\Users\Jon\Pictures\Art\Haacked\wired-head-small.png" viewBox="0 0 445.71 528.53" sodipodi:version="0.32" inkscape:export-xdpi="16.15" version="1.0" inkscape:output_extension="org.inkscape.output.svg.inkscape" inkscape:export-ydpi="16.15" inkscape:version="0.45.1" sodipodi:docbase="C:\Documents and Settings\Molumen\Desktop" style="">
  <defs id="defs4">
    <radialGradient id="radialGradient3203" gradientUnits="userSpaceOnUse" cy="382.72" cx="415.71" gradientTransform="matrix(1 0 0 1.202 0 -77.304)" r="107.86" inkscape:collect="always">
      <stop id="stop3195" style="stop-color:#b5a659" offset="0"></stop>
      <stop id="stop3197" style="stop-color:#484558" offset="1"></stop>
    </radialGradient>
    <linearGradient id="linearGradient4199" y2="248.49" gradientUnits="userSpaceOnUse" x2="379.56" y1="248.49" x1="346.74" inkscape:collect="always">
      <stop id="stop4193" style="stop-color:#0047b3" offset="0"></stop>
      <stop id="stop4201" style="stop-color:#5599ff" offset=".5"></stop>
      <stop id="stop4195" style="stop-color:#003b94" offset="1"></stop>
    </linearGradient>
    <linearGradient id="linearGradient4238" y2="200.28" gradientUnits="userSpaceOnUse" x2="376.39" gradientTransform="matrix(.99329 0 0 1.8524 2.3693 -201.21)" y1="213.92" x1="337.16" inkscape:collect="always">
      <stop id="stop4242" style="stop-color:#8cff8a" offset="0"></stop>
      <stop id="stop4244" style="stop-color:#ffffff" offset=".5"></stop>
      <stop id="stop4246" style="stop-color:#00ae6f" offset="1"></stop>
    </linearGradient>
    <linearGradient id="linearGradient20765" y2="165.27" gradientUnits="userSpaceOnUse" x2="614.63" y1="450.13" x1="209.36" inkscape:collect="always">
      <stop id="stop20761" style="stop-color:#8ce3ac" offset="0"></stop>
      <stop id="stop20763" style="stop-color:#3e8bd0" offset="1"></stop>
    </linearGradient>
    <filter id="filter2894" height="1.4711" width="1.4293" y="-.23556" x="-.21467" inkscape:collect="always">
      <feGaussianBlur id="feGaussianBlur2896" stdDeviation="9.1134464" inkscape:collect="always"></feGaussianBlur>
    </filter>
    <filter id="filter5726" inkscape:collect="always">
      <feGaussianBlur id="feGaussianBlur5728" stdDeviation="0.63327057" inkscape:collect="always"></feGaussianBlur>
    </filter>
  </defs>
  <sodipodi:namedview id="base" bordercolor="#666666" inkscape:pageshadow="2" guidetolerance="10" pagecolor="#ffffff" gridtolerance="10000" inkscape:window-height="1150" inkscape:zoom="0.49497475" objecttolerance="10" borderopacity="1.0" inkscape:current-layer="layer1" inkscape:cx="593.25172" inkscape:cy="55.944694" inkscape:window-y="16" inkscape:window-x="0" inkscape:window-width="1600" inkscape:pageopacity="0.0" inkscape:document-units="px"></sodipodi:namedview>
  <g id="layer1" inkscape:label="Layer 1" inkscape:groupmode="layer" transform="translate(-154.29 -116.65)">
    <path id="rect2160" style="stroke:#000000;stroke-linecap:round;stroke-miterlimit:5.5;stroke-width:15;fill:url(#linearGradient20765)" height="288.57" width="377.14" d="M 269.57,186.65 L 484.71000000000004,186.65 A 81,64,0,0,1,565.71,250.65 L 565.71,411.22 A 81,64,0,0,1,484.71000000000004,475.22 L 269.57,475.22 A 81,64,0,0,1,188.57,411.22 L 188.57,250.65 A 81,64,0,0,1,269.57,186.65" class="bYKvHzWs_0"></path>
    <path id="flowRoot2162" style="fill:#000000" transform="matrix(1.314 0 0 1.1494 -84.076 -51.473)" d="m234.98 230.53v1.15c-0.44-0.21-0.87-0.37-1.27-0.48-0.4-0.1-0.78-0.16-1.15-0.16-0.65 0-1.14 0.13-1.49 0.38s-0.53 0.6-0.53 1.06c0 0.39 0.12 0.68 0.35 0.88s0.67 0.36 1.32 0.48l0.72 0.14c0.88 0.17 1.53 0.47 1.95 0.89 0.42 0.43 0.63 0.99 0.63 1.7 0 0.85-0.28 1.49-0.85 1.93s-1.4 0.66-2.5 0.66c-0.41 0-0.85-0.05-1.32-0.14-0.47-0.1-0.95-0.24-1.45-0.42v-1.22c0.48 0.27 0.95 0.47 1.41 0.61s0.91 0.21 1.36 0.21c0.68 0 1.2-0.14 1.56-0.4 0.37-0.27 0.56-0.65 0.56-1.14 0-0.43-0.14-0.76-0.4-1.01-0.26-0.24-0.7-0.42-1.3-0.54l-0.72-0.14c-0.88-0.18-1.52-0.45-1.91-0.83-0.4-0.37-0.6-0.89-0.6-1.56 0-0.78 0.28-1.39 0.82-1.83 0.55-0.45 1.3-0.67 2.25-0.67 0.41 0 0.83 0.04 1.26 0.11 0.42 0.08 0.86 0.19 1.3 0.34zm3.4 0.03v1.87h2.22v0.83h-2.22v3.57c0 0.53 0.07 0.87 0.22 1.03 0.14 0.15 0.44 0.23 0.89 0.23h1.11v0.9h-1.11c-0.83 0-1.41-0.16-1.72-0.47-0.32-0.31-0.48-0.87-0.48-1.69v-3.57h-0.79v-0.83h0.79v-1.87h1.09zm6.62 5.13c-0.87 0-1.47 0.1-1.81 0.3-0.33 0.2-0.5 0.54-0.5 1.02 0 0.38 0.13 0.68 0.38 0.91 0.25 0.22 0.59 0.34 1.03 0.34 0.59 0 1.07-0.22 1.43-0.64 0.37-0.42 0.55-0.99 0.55-1.69v-0.24h-1.08zm2.15-0.45v3.75h-1.07v-1c-0.25 0.4-0.56 0.69-0.92 0.88-0.37 0.19-0.82 0.29-1.35 0.29-0.67 0-1.21-0.19-1.6-0.57-0.4-0.37-0.6-0.88-0.6-1.51 0-0.74 0.25-1.3 0.74-1.67 0.5-0.38 1.23-0.56 2.21-0.56h1.52v-0.11c0-0.5-0.17-0.88-0.49-1.15-0.33-0.27-0.79-0.41-1.38-0.41-0.37 0-0.74 0.05-1.09 0.14-0.36 0.09-0.7 0.22-1.03 0.4v-1c0.4-0.15 0.78-0.26 1.15-0.34 0.37-0.07 0.73-0.11 1.08-0.11 0.95 0 1.66 0.24 2.13 0.74 0.47 0.49 0.7 1.23 0.7 2.23zm6.95-2.56v1.01c-0.3-0.17-0.61-0.3-0.91-0.38-0.31-0.09-0.62-0.13-0.93-0.13-0.7 0-1.24 0.22-1.63 0.67-0.39 0.44-0.58 1.06-0.58 1.86s0.19 1.43 0.58 1.87 0.93 0.66 1.63 0.66c0.31 0 0.62-0.04 0.93-0.12 0.3-0.09 0.61-0.21 0.91-0.38v1c-0.3 0.14-0.61 0.24-0.93 0.31s-0.67 0.11-1.03 0.11c-0.99 0-1.77-0.31-2.35-0.93-0.59-0.63-0.88-1.46-0.88-2.52 0-1.07 0.3-1.91 0.88-2.52 0.59-0.62 1.4-0.92 2.42-0.92 0.33 0 0.66 0.03 0.97 0.1 0.32 0.07 0.63 0.17 0.92 0.31zm1.85-2.81h1.08v5.39l3.22-2.83h1.38l-3.48 3.07 3.62 3.49h-1.4l-3.34-3.21v3.21h-1.08v-9.12zm14.65 3.21l-6.04 2.15 6.04 2.14v1.07l-7.51-2.73v-0.97l7.51-2.72v1.06zm9-2.17v1.25c-0.39-0.37-0.82-0.65-1.27-0.83s-0.93-0.28-1.44-0.28c-1 0-1.77 0.31-2.3 0.92s-0.79 1.5-0.79 2.65 0.26 2.04 0.79 2.65 1.3 0.92 2.3 0.92c0.51 0 0.99-0.1 1.44-0.28s0.88-0.46 1.27-0.83v1.23c-0.41 0.29-0.85 0.5-1.31 0.64s-0.95 0.21-1.47 0.21c-1.32 0-2.37-0.41-3.13-1.22s-1.14-1.92-1.14-3.32 0.38-2.51 1.14-3.32 1.81-1.22 3.13-1.22c0.52 0 1.02 0.07 1.48 0.21s0.9 0.35 1.3 0.62zm4.34 2.27c-0.58 0-1.04 0.23-1.37 0.68-0.34 0.45-0.51 1.07-0.51 1.85 0 0.79 0.17 1.41 0.51 1.86 0.33 0.45 0.79 0.67 1.37 0.67 0.57 0 1.03-0.22 1.36-0.68 0.34-0.45 0.51-1.07 0.51-1.85 0-0.77-0.17-1.39-0.51-1.85-0.33-0.45-0.79-0.68-1.36-0.68zm0-0.91c0.94 0 1.67 0.3 2.21 0.91 0.53 0.61 0.8 1.45 0.8 2.53s-0.27 1.92-0.8 2.53c-0.54 0.61-1.27 0.92-2.21 0.92s-1.68-0.31-2.21-0.92c-0.54-0.61-0.8-1.45-0.8-2.53s0.26-1.92 0.8-2.53c0.53-0.61 1.27-0.91 2.21-0.91zm10.25 2.76v3.96h-1.08v-3.93c0-0.62-0.12-1.08-0.36-1.39-0.25-0.31-0.61-0.47-1.09-0.47-0.59 0-1.04 0.19-1.38 0.56s-0.5 0.88-0.5 1.52v3.71h-1.09v-6.56h1.09v1.01c0.25-0.39 0.56-0.68 0.91-0.88s0.75-0.29 1.21-0.29c0.75 0 1.32 0.23 1.71 0.7 0.38 0.46 0.58 1.15 0.58 2.06zm3.23-4.47v1.87h2.22v0.83h-2.22v3.57c0 0.53 0.07 0.87 0.22 1.03 0.14 0.15 0.44 0.23 0.89 0.23h1.11v0.9h-1.11c-0.83 0-1.41-0.16-1.72-0.47-0.32-0.31-0.48-0.87-0.48-1.69v-3.57h-0.79v-0.83h0.79v-1.87h1.09zm7.44 2.87c-0.12-0.07-0.25-0.12-0.39-0.15-0.14-0.04-0.3-0.05-0.47-0.05-0.61 0-1.08 0.2-1.41 0.59-0.32 0.4-0.49 0.97-0.49 1.71v3.46h-1.08v-6.56h1.08v1.01c0.23-0.39 0.52-0.69 0.89-0.88 0.36-0.2 0.8-0.29 1.32-0.29 0.08 0 0.16 0 0.25 0.01s0.19 0.03 0.3 0.05v1.1zm3.69-0.25c-0.58 0-1.04 0.23-1.37 0.68-0.34 0.45-0.51 1.07-0.51 1.85 0 0.79 0.17 1.41 0.5 1.86 0.34 0.45 0.8 0.67 1.38 0.67 0.57 0 1.03-0.22 1.36-0.68 0.34-0.45 0.51-1.07 0.51-1.85 0-0.77-0.17-1.39-0.51-1.85-0.33-0.45-0.79-0.68-1.36-0.68zm0-0.91c0.94 0 1.67 0.3 2.21 0.91 0.53 0.61 0.8 1.45 0.8 2.53s-0.27 1.92-0.8 2.53c-0.54 0.61-1.27 0.92-2.21 0.92s-1.68-0.31-2.21-0.92c-0.54-0.61-0.8-1.45-0.8-2.53s0.26-1.92 0.8-2.53c0.53-0.61 1.27-0.91 2.21-0.91zm4.79-2.4h1.08v9.12h-1.08v-9.12zm3.47 3.21v-1.06l7.51 2.72v0.97l-7.51 2.73v-1.07l6.04-2.14-6.04-2.15zm17.92-0.46v1.02c-0.31-0.16-0.62-0.28-0.95-0.35-0.33-0.08-0.67-0.12-1.02-0.12-0.54 0-0.94 0.08-1.2 0.25-0.27 0.16-0.41 0.41-0.41 0.73 0 0.25 0.1 0.45 0.29 0.59 0.19 0.15 0.58 0.28 1.16 0.41l0.36 0.08c0.77 0.17 1.31 0.4 1.64 0.7 0.32 0.3 0.48 0.71 0.48 1.25 0 0.61-0.24 1.09-0.72 1.44-0.49 0.36-1.15 0.54-1.99 0.54-0.35 0-0.72-0.04-1.1-0.1-0.38-0.07-0.78-0.18-1.21-0.31v-1.12c0.4 0.21 0.8 0.37 1.18 0.47 0.39 0.1 0.77 0.16 1.15 0.16 0.51 0 0.9-0.09 1.17-0.27 0.28-0.17 0.41-0.41 0.41-0.73 0-0.29-0.1-0.52-0.29-0.67-0.2-0.16-0.63-0.31-1.3-0.46l-0.38-0.08c-0.66-0.14-1.15-0.36-1.44-0.65-0.3-0.29-0.45-0.69-0.45-1.2 0-0.62 0.22-1.09 0.66-1.43 0.44-0.33 1.06-0.5 1.86-0.5 0.4 0 0.77 0.03 1.13 0.08 0.35 0.06 0.67 0.15 0.97 0.27zm3.14-2.06v1.87h2.22v0.83h-2.22v3.57c0 0.53 0.07 0.87 0.22 1.03 0.15 0.15 0.44 0.23 0.89 0.23h1.11v0.9h-1.11c-0.83 0-1.4-0.16-1.72-0.47s-0.47-0.87-0.47-1.69v-3.57h-0.8v-0.83h0.8v-1.87h1.08zm6.63 5.13c-0.88 0-1.48 0.1-1.81 0.3-0.34 0.2-0.51 0.54-0.51 1.02 0 0.38 0.13 0.68 0.38 0.91 0.25 0.22 0.59 0.34 1.03 0.34 0.6 0 1.08-0.22 1.44-0.64s0.54-0.99 0.54-1.69v-0.24h-1.07zm2.15-0.45v3.75h-1.08v-1c-0.25 0.4-0.55 0.69-0.92 0.88s-0.82 0.29-1.35 0.29c-0.67 0-1.21-0.19-1.6-0.57-0.4-0.37-0.6-0.88-0.6-1.51 0-0.74 0.25-1.3 0.74-1.67 0.5-0.38 1.24-0.56 2.22-0.56h1.51v-0.11c0-0.5-0.16-0.88-0.49-1.15s-0.79-0.41-1.37-0.41c-0.38 0-0.75 0.05-1.1 0.14-0.36 0.09-0.7 0.22-1.03 0.4v-1c0.4-0.15 0.78-0.26 1.15-0.34 0.37-0.07 0.73-0.11 1.09-0.11 0.95 0 1.65 0.24 2.12 0.74 0.47 0.49 0.71 1.23 0.71 2.23zm6.95-2.56v1.01c-0.31-0.17-0.61-0.3-0.92-0.38-0.31-0.09-0.62-0.13-0.93-0.13-0.7 0-1.24 0.22-1.63 0.67-0.39 0.44-0.58 1.06-0.58 1.86s0.19 1.43 0.58 1.87 0.93 0.66 1.63 0.66c0.31 0 0.62-0.04 0.93-0.12 0.31-0.09 0.61-0.21 0.92-0.38v1c-0.31 0.14-0.62 0.24-0.94 0.31s-0.66 0.11-1.03 0.11c-0.99 0-1.77-0.31-2.35-0.93-0.58-0.63-0.88-1.46-0.88-2.52 0-1.07 0.3-1.91 0.89-2.52 0.58-0.62 1.39-0.92 2.41-0.92 0.34 0 0.66 0.03 0.98 0.1 0.31 0.07 0.62 0.17 0.92 0.31zm1.84-2.81h1.09v5.39l3.21-2.83h1.38l-3.48 3.07 3.63 3.49h-1.41l-3.33-3.21v3.21h-1.09v-9.12zm10.96 3.67h7.52v0.98h-7.52v-0.98zm0 2.39h7.52v1h-7.52v-1zm19.19-0.9v3.96h-1.07v-3.93c0-0.62-0.13-1.08-0.37-1.39s-0.6-0.47-1.09-0.47c-0.58 0-1.04 0.19-1.37 0.56-0.34 0.37-0.51 0.88-0.51 1.52v3.71h-1.08v-6.56h1.08v1.01c0.26-0.39 0.56-0.68 0.91-0.88s0.76-0.29 1.21-0.29c0.76 0 1.33 0.23 1.71 0.7 0.39 0.46 0.58 1.15 0.58 2.06zm7.78 0.41v0.52h-4.96c0.05 0.75 0.27 1.31 0.67 1.7s0.96 0.58 1.68 0.58c0.41 0 0.81-0.05 1.2-0.15s0.77-0.25 1.16-0.46v1.02c-0.39 0.17-0.79 0.29-1.19 0.38-0.41 0.08-0.82 0.13-1.24 0.13-1.05 0-1.87-0.31-2.49-0.92-0.61-0.61-0.91-1.43-0.91-2.47 0-1.07 0.29-1.93 0.87-2.56s1.36-0.94 2.34-0.94c0.89 0 1.58 0.28 2.1 0.85 0.51 0.57 0.77 1.34 0.77 2.32zm-1.08-0.32c-0.01-0.59-0.17-1.06-0.49-1.41-0.33-0.35-0.75-0.53-1.28-0.53-0.61 0-1.09 0.17-1.45 0.51s-0.57 0.82-0.62 1.44l3.84-0.01zm2.22-2.69h1.08l1.35 5.12 1.34-5.12h1.27l1.35 5.12 1.34-5.12h1.08l-1.72 6.56h-1.27l-1.41-5.38-1.42 5.38h-1.27l-1.72-6.56zm-159.53 13.1v1.15c-0.44-0.21-0.87-0.37-1.27-0.48-0.4-0.1-0.78-0.16-1.15-0.16-0.65 0-1.14 0.13-1.49 0.38s-0.53 0.6-0.53 1.06c0 0.39 0.12 0.68 0.35 0.88s0.67 0.36 1.32 0.48l0.72 0.14c0.88 0.17 1.53 0.47 1.95 0.89 0.42 0.43 0.63 0.99 0.63 1.7 0 0.85-0.28 1.49-0.85 1.93s-1.4 0.66-2.5 0.66c-0.41 0-0.85-0.05-1.32-0.14-0.47-0.1-0.95-0.24-1.45-0.42v-1.22c0.48 0.27 0.95 0.47 1.41 0.61s0.91 0.21 1.36 0.21c0.68 0 1.2-0.14 1.56-0.4 0.37-0.27 0.56-0.65 0.56-1.14 0-0.43-0.14-0.76-0.4-1.01-0.26-0.24-0.7-0.42-1.3-0.54l-0.72-0.14c-0.88-0.18-1.52-0.45-1.91-0.83-0.4-0.37-0.6-0.89-0.6-1.56 0-0.78 0.28-1.39 0.82-1.83 0.55-0.45 1.3-0.67 2.25-0.67 0.41 0 0.83 0.04 1.26 0.11 0.42 0.08 0.86 0.19 1.3 0.34zm3.4 0.03v1.87h2.22v0.83h-2.22v3.57c0 0.53 0.07 0.87 0.22 1.03 0.14 0.15 0.44 0.23 0.89 0.23h1.11v0.9h-1.11c-0.83 0-1.41-0.16-1.72-0.47-0.32-0.31-0.48-0.87-0.48-1.69v-3.57h-0.79v-0.83h0.79v-1.87h1.09zm6.62 5.13c-0.87 0-1.47 0.1-1.81 0.3-0.33 0.2-0.5 0.54-0.5 1.02 0 0.38 0.13 0.68 0.38 0.91 0.25 0.22 0.59 0.34 1.03 0.34 0.59 0 1.07-0.22 1.43-0.64 0.37-0.42 0.55-0.99 0.55-1.69v-0.24h-1.08zm2.15-0.45v3.75h-1.07v-1c-0.25 0.4-0.56 0.69-0.92 0.88-0.37 0.19-0.82 0.29-1.35 0.29-0.67 0-1.21-0.19-1.6-0.57-0.4-0.37-0.6-0.88-0.6-1.51 0-0.74 0.25-1.3 0.74-1.67 0.5-0.38 1.23-0.56 2.21-0.56h1.52v-0.11c0-0.5-0.17-0.88-0.49-1.15-0.33-0.27-0.79-0.41-1.38-0.41-0.37 0-0.74 0.05-1.09 0.14-0.36 0.09-0.7 0.22-1.03 0.4v-1c0.4-0.15 0.78-0.26 1.15-0.34 0.37-0.07 0.73-0.11 1.08-0.11 0.95 0 1.66 0.24 2.13 0.74 0.47 0.49 0.7 1.23 0.7 2.23zm6.95-2.56v1.01c-0.3-0.17-0.61-0.3-0.91-0.38-0.31-0.09-0.62-0.13-0.93-0.13-0.7 0-1.24 0.22-1.63 0.67-0.39 0.44-0.58 1.06-0.58 1.86s0.19 1.43 0.58 1.87 0.93 0.66 1.63 0.66c0.31 0 0.62-0.04 0.93-0.12 0.3-0.09 0.61-0.21 0.91-0.38v1c-0.3 0.14-0.61 0.24-0.93 0.31s-0.67 0.11-1.03 0.11c-0.99 0-1.77-0.31-2.35-0.93-0.59-0.63-0.88-1.46-0.88-2.52 0-1.07 0.3-1.91 0.88-2.52 0.59-0.62 1.4-0.92 2.42-0.92 0.33 0 0.66 0.03 0.97 0.1 0.32 0.07 0.63 0.17 0.92 0.31zm1.85-2.81h1.08v5.39l3.22-2.83h1.38l-3.48 3.07 3.62 3.49h-1.4l-3.34-3.21v3.21h-1.08v-9.12zm14.65 3.21l-6.04 2.15 6.04 2.14v1.07l-7.51-2.73v-0.97l7.51-2.72v1.06zm9-2.17v1.25c-0.39-0.37-0.82-0.65-1.27-0.83s-0.93-0.28-1.44-0.28c-1 0-1.77 0.31-2.3 0.92s-0.79 1.5-0.79 2.65 0.26 2.04 0.79 2.65 1.3 0.92 2.3 0.92c0.51 0 0.99-0.1 1.44-0.28s0.88-0.46 1.27-0.83v1.23c-0.41 0.29-0.85 0.5-1.31 0.64s-0.95 0.21-1.47 0.21c-1.32 0-2.37-0.41-3.13-1.22s-1.14-1.92-1.14-3.32 0.38-2.51 1.14-3.32 1.81-1.22 3.13-1.22c0.52 0 1.02 0.07 1.48 0.21s0.9 0.35 1.3 0.62zm4.34 2.27c-0.58 0-1.04 0.23-1.37 0.68-0.34 0.45-0.51 1.07-0.51 1.85 0 0.79 0.17 1.41 0.51 1.86 0.33 0.45 0.79 0.67 1.37 0.67 0.57 0 1.03-0.22 1.36-0.68 0.34-0.45 0.51-1.07 0.51-1.85 0-0.77-0.17-1.39-0.51-1.85-0.33-0.45-0.79-0.68-1.36-0.68zm0-0.91c0.94 0 1.67 0.3 2.21 0.91 0.53 0.61 0.8 1.45 0.8 2.53s-0.27 1.92-0.8 2.53c-0.54 0.61-1.27 0.92-2.21 0.92s-1.68-0.31-2.21-0.92c-0.54-0.61-0.8-1.45-0.8-2.53s0.26-1.92 0.8-2.53c0.53-0.61 1.27-0.91 2.21-0.91zm10.25 2.76v3.96h-1.08v-3.93c0-0.62-0.12-1.08-0.36-1.39-0.25-0.31-0.61-0.47-1.09-0.47-0.59 0-1.04 0.19-1.38 0.56s-0.5 0.88-0.5 1.52v3.71h-1.09v-6.56h1.09v1.01c0.25-0.39 0.56-0.68 0.91-0.88s0.75-0.29 1.21-0.29c0.75 0 1.32 0.23 1.71 0.7 0.38 0.46 0.58 1.15 0.58 2.06zm3.23-4.47v1.87h2.22v0.83h-2.22v3.57c0 0.53 0.07 0.87 0.22 1.03 0.14 0.15 0.44 0.23 0.89 0.23h1.11v0.9h-1.11c-0.83 0-1.41-0.16-1.72-0.47-0.32-0.31-0.48-0.87-0.48-1.69v-3.57h-0.79v-0.83h0.79v-1.87h1.09zm7.44 2.87c-0.12-0.07-0.25-0.12-0.39-0.15-0.14-0.04-0.3-0.05-0.47-0.05-0.61 0-1.08 0.2-1.41 0.59-0.32 0.4-0.49 0.97-0.49 1.71v3.46h-1.08v-6.56h1.08v1.01c0.23-0.39 0.52-0.69 0.89-0.88 0.36-0.2 0.8-0.29 1.32-0.29 0.08 0 0.16 0 0.25 0.01s0.19 0.03 0.3 0.05v1.1zm3.69-0.25c-0.58 0-1.04 0.23-1.37 0.68-0.34 0.45-0.51 1.07-0.51 1.85 0 0.79 0.17 1.41 0.5 1.86 0.34 0.45 0.8 0.67 1.38 0.67 0.57 0 1.03-0.22 1.36-0.68 0.34-0.45 0.51-1.07 0.51-1.85 0-0.77-0.17-1.39-0.51-1.85-0.33-0.45-0.79-0.68-1.36-0.68zm0-0.91c0.94 0 1.67 0.3 2.21 0.91 0.53 0.61 0.8 1.45 0.8 2.53s-0.27 1.92-0.8 2.53c-0.54 0.61-1.27 0.92-2.21 0.92s-1.68-0.31-2.21-0.92c-0.54-0.61-0.8-1.45-0.8-2.53s0.26-1.92 0.8-2.53c0.53-0.61 1.27-0.91 2.21-0.91zm4.79-2.4h1.08v9.12h-1.08v-9.12zm3.47 3.21v-1.06l7.51 2.72v0.97l-7.51 2.73v-1.07l6.04-2.14-6.04-2.15zm12.5-3.2c-0.52 0.9-0.91 1.79-1.16 2.67-0.26 0.88-0.38 1.77-0.38 2.67s0.13 1.8 0.38 2.68c0.26 0.89 0.64 1.78 1.16 2.67h-0.93c-0.59-0.92-1.03-1.82-1.32-2.71-0.29-0.88-0.44-1.76-0.44-2.64 0-0.87 0.15-1.75 0.44-2.63s0.73-1.79 1.32-2.71h0.93zm1.93 0h0.94c0.59 0.92 1.02 1.83 1.32 2.71 0.29 0.88 0.43 1.76 0.43 2.63 0 0.88-0.14 1.76-0.43 2.64-0.3 0.89-0.73 1.79-1.32 2.71h-0.94c0.52-0.89 0.91-1.78 1.17-2.67 0.25-0.88 0.38-1.78 0.38-2.68s-0.13-1.79-0.38-2.67c-0.26-0.88-0.65-1.77-1.17-2.67zm5.14 2.9h1.23v1.49h-1.23v-1.49zm0 4.72h1.23v1.01l-0.96 1.87h-0.76l0.49-1.87v-1.01zm-102.5 10.12v1.02c-0.31-0.16-0.62-0.28-0.95-0.35-0.33-0.08-0.67-0.12-1.02-0.12-0.54 0-0.94 0.08-1.21 0.25-0.26 0.16-0.4 0.41-0.4 0.73 0 0.25 0.1 0.45 0.29 0.59 0.19 0.15 0.58 0.28 1.15 0.41l0.37 0.08c0.77 0.17 1.31 0.4 1.64 0.7 0.32 0.3 0.48 0.71 0.48 1.25 0 0.61-0.24 1.09-0.73 1.44-0.48 0.36-1.14 0.54-1.98 0.54-0.36 0-0.72-0.04-1.1-0.1-0.38-0.07-0.79-0.18-1.21-0.31v-1.12c0.4 0.21 0.79 0.37 1.18 0.47s0.77 0.16 1.15 0.16c0.51 0 0.9-0.09 1.17-0.27 0.27-0.17 0.41-0.41 0.41-0.73 0-0.29-0.1-0.52-0.29-0.67-0.2-0.16-0.63-0.31-1.3-0.46l-0.38-0.08c-0.67-0.14-1.15-0.36-1.44-0.65-0.3-0.29-0.45-0.69-0.45-1.2 0-0.62 0.22-1.09 0.66-1.43 0.43-0.33 1.05-0.5 1.86-0.5 0.4 0 0.77 0.03 1.12 0.08 0.36 0.06 0.68 0.15 0.98 0.27zm3.14-2.06v1.87h2.22v0.83h-2.22v3.57c0 0.53 0.07 0.87 0.22 1.03 0.14 0.15 0.44 0.23 0.89 0.23h1.11v0.9h-1.11c-0.83 0-1.41-0.16-1.72-0.47-0.32-0.31-0.48-0.87-0.48-1.69v-3.57h-0.79v-0.83h0.79v-1.87h1.09zm6.62 5.13c-0.87 0-1.47 0.1-1.81 0.3-0.33 0.2-0.5 0.54-0.5 1.02 0 0.38 0.13 0.68 0.38 0.91 0.25 0.22 0.59 0.34 1.03 0.34 0.59 0 1.07-0.22 1.43-0.64 0.37-0.42 0.55-0.99 0.55-1.69v-0.24h-1.08zm2.15-0.45v3.75h-1.07v-1c-0.25 0.4-0.56 0.69-0.92 0.88-0.37 0.19-0.82 0.29-1.35 0.29-0.67 0-1.21-0.19-1.6-0.57-0.4-0.37-0.6-0.88-0.6-1.51 0-0.74 0.25-1.3 0.74-1.67 0.5-0.38 1.23-0.56 2.22-0.56h1.51v-0.11c0-0.5-0.17-0.88-0.49-1.15-0.33-0.27-0.79-0.41-1.38-0.41-0.37 0-0.74 0.05-1.09 0.14-0.36 0.09-0.7 0.22-1.03 0.4v-1c0.4-0.15 0.78-0.26 1.15-0.34 0.37-0.07 0.73-0.11 1.08-0.11 0.95 0 1.66 0.24 2.13 0.74 0.47 0.49 0.7 1.23 0.7 2.23zm6.95-2.56v1.01c-0.3-0.17-0.61-0.3-0.91-0.38-0.31-0.09-0.62-0.13-0.93-0.13-0.7 0-1.24 0.22-1.63 0.67-0.39 0.44-0.58 1.06-0.58 1.86s0.19 1.43 0.58 1.87 0.93 0.66 1.63 0.66c0.31 0 0.62-0.04 0.93-0.12 0.3-0.09 0.61-0.21 0.91-0.38v1c-0.3 0.14-0.61 0.24-0.93 0.31s-0.67 0.11-1.03 0.11c-0.99 0-1.77-0.31-2.35-0.93-0.59-0.63-0.88-1.46-0.88-2.52 0-1.07 0.3-1.91 0.88-2.52 0.59-0.62 1.4-0.92 2.42-0.92 0.33 0 0.66 0.03 0.97 0.1 0.32 0.07 0.63 0.17 0.92 0.31zm1.85-2.81h1.08v5.39l3.22-2.83h1.38l-3.48 3.07 3.62 3.49h-1.4l-3.34-3.21v3.21h-1.08v-9.12zm7.15 7.63h1.24v1.49h-1.24v-1.49zm4.9-6.29v3.29h1.49c0.55 0 0.98-0.14 1.28-0.43 0.3-0.28 0.45-0.69 0.45-1.22 0-0.52-0.15-0.92-0.45-1.21-0.3-0.28-0.73-0.43-1.28-0.43h-1.49zm-1.18-0.97h2.67c0.98 0 1.72 0.22 2.22 0.66 0.51 0.45 0.76 1.1 0.76 1.95 0 0.87-0.25 1.52-0.76 1.96-0.5 0.44-1.24 0.66-2.22 0.66h-1.49v3.52h-1.18v-8.75zm7.08 6.16v-3.97h1.08v3.93c0 0.62 0.12 1.08 0.36 1.39 0.25 0.31 0.61 0.47 1.09 0.47 0.59 0 1.05-0.19 1.38-0.56 0.34-0.37 0.51-0.87 0.51-1.51v-3.72h1.08v6.56h-1.08v-1.01c-0.26 0.4-0.56 0.69-0.91 0.89-0.35 0.19-0.75 0.29-1.2 0.29-0.76 0-1.33-0.24-1.72-0.71-0.39-0.46-0.59-1.15-0.59-2.05zm11.92-3.78v1.02c-0.31-0.16-0.63-0.28-0.95-0.35-0.33-0.08-0.67-0.12-1.02-0.12-0.54 0-0.94 0.08-1.21 0.25-0.27 0.16-0.4 0.41-0.4 0.73 0 0.25 0.1 0.45 0.29 0.59 0.19 0.15 0.57 0.28 1.15 0.41l0.37 0.08c0.77 0.17 1.31 0.4 1.63 0.7 0.33 0.3 0.49 0.71 0.49 1.25 0 0.61-0.24 1.09-0.73 1.44-0.48 0.36-1.14 0.54-1.99 0.54-0.35 0-0.71-0.04-1.09-0.1-0.39-0.07-0.79-0.18-1.21-0.31v-1.12c0.4 0.21 0.79 0.37 1.18 0.47s0.77 0.16 1.15 0.16c0.5 0 0.9-0.09 1.17-0.27 0.27-0.17 0.41-0.41 0.41-0.73 0-0.29-0.1-0.52-0.3-0.67-0.19-0.16-0.63-0.31-1.29-0.46l-0.38-0.08c-0.67-0.14-1.15-0.36-1.45-0.65-0.29-0.29-0.44-0.69-0.44-1.2 0-0.62 0.22-1.09 0.65-1.43 0.44-0.33 1.06-0.5 1.87-0.5 0.4 0 0.77 0.03 1.12 0.08 0.35 0.06 0.68 0.15 0.98 0.27zm7.52 2.41v3.96h-1.07v-3.93c0-0.62-0.12-1.08-0.37-1.39-0.24-0.31-0.6-0.47-1.09-0.47-0.58 0-1.04 0.19-1.37 0.56-0.34 0.37-0.51 0.88-0.51 1.52v3.71h-1.08v-9.12h1.08v3.57c0.26-0.39 0.56-0.68 0.91-0.88s0.76-0.29 1.21-0.29c0.76 0 1.33 0.23 1.71 0.7 0.39 0.46 0.58 1.15 0.58 2.06zm4.76-5.15c-0.53 0.9-0.92 1.79-1.17 2.67s-0.38 1.77-0.38 2.67 0.13 1.8 0.38 2.68c0.26 0.89 0.65 1.78 1.17 2.67h-0.94c-0.59-0.92-1.03-1.82-1.32-2.71-0.29-0.88-0.43-1.76-0.43-2.64 0-0.87 0.14-1.75 0.43-2.63s0.73-1.79 1.32-2.71h0.94zm5.9 3.55c-0.12-0.07-0.26-0.12-0.4-0.15-0.14-0.04-0.3-0.05-0.47-0.05-0.61 0-1.08 0.2-1.4 0.59-0.33 0.4-0.49 0.97-0.49 1.71v3.46h-1.09v-6.56h1.09v1.01c0.22-0.39 0.52-0.69 0.88-0.88 0.36-0.2 0.81-0.29 1.33-0.29 0.07 0 0.15 0 0.24 0.01s0.19 0.03 0.3 0.05l0.01 1.1zm3.68-0.25c-0.58 0-1.03 0.23-1.37 0.68-0.33 0.45-0.5 1.07-0.5 1.85 0 0.79 0.16 1.41 0.5 1.86 0.33 0.45 0.79 0.67 1.37 0.67s1.03-0.22 1.37-0.68c0.33-0.45 0.5-1.07 0.5-1.85 0-0.77-0.17-1.39-0.5-1.85-0.34-0.45-0.79-0.68-1.37-0.68zm0-0.91c0.94 0 1.68 0.3 2.21 0.91 0.54 0.61 0.8 1.45 0.8 2.53s-0.26 1.92-0.8 2.53c-0.53 0.61-1.27 0.92-2.21 0.92s-1.68-0.31-2.21-0.92-0.8-1.45-0.8-2.53 0.27-1.92 0.8-2.53 1.27-0.91 2.21-0.91zm7.34 0.91c-0.58 0-1.04 0.23-1.37 0.68-0.34 0.45-0.51 1.07-0.51 1.85 0 0.79 0.17 1.41 0.5 1.86 0.34 0.45 0.8 0.67 1.38 0.67 0.57 0 1.03-0.22 1.36-0.68 0.34-0.45 0.51-1.07 0.51-1.85 0-0.77-0.17-1.39-0.51-1.85-0.33-0.45-0.79-0.68-1.36-0.68zm0-0.91c0.94 0 1.67 0.3 2.21 0.91 0.53 0.61 0.8 1.45 0.8 2.53s-0.27 1.92-0.8 2.53c-0.54 0.61-1.27 0.92-2.21 0.92s-1.68-0.31-2.21-0.92c-0.54-0.61-0.8-1.45-0.8-2.53s0.26-1.92 0.8-2.53c0.53-0.61 1.27-0.91 2.21-0.91zm5.86-1.71v1.87h2.22v0.83h-2.22v3.57c0 0.53 0.07 0.87 0.22 1.03 0.14 0.15 0.44 0.23 0.89 0.23h1.11v0.9h-1.11c-0.83 0-1.41-0.16-1.72-0.47-0.32-0.31-0.48-0.87-0.48-1.69v-3.57h-0.79v-0.83h0.79v-1.87h1.09zm3.47-0.68h0.94c0.59 0.92 1.02 1.83 1.32 2.71 0.29 0.88 0.43 1.76 0.43 2.63 0 0.88-0.14 1.76-0.43 2.64-0.3 0.89-0.73 1.79-1.32 2.71h-0.94c0.52-0.89 0.91-1.78 1.17-2.67 0.25-0.88 0.38-1.78 0.38-2.68s-0.13-1.79-0.38-2.67c-0.26-0.88-0.65-1.77-1.17-2.67zm5.13 2.9h1.24v1.49h-1.24v-1.49zm0 4.72h1.24v1.01l-0.96 1.87h-0.76l0.48-1.87v-1.01zm-99.05 9.93h1.07l1.35 5.12 1.34-5.12h1.28l1.34 5.12 1.34-5.12h1.08l-1.71 6.56h-1.28l-1.41-5.38-1.42 5.38h-1.27l-1.71-6.56zm15.9 2.6v3.96h-1.08v-3.93c0-0.62-0.12-1.08-0.36-1.39s-0.61-0.47-1.09-0.47c-0.58 0-1.04 0.19-1.38 0.56s-0.5 0.88-0.5 1.52v3.71h-1.09v-9.12h1.09v3.57c0.25-0.39 0.56-0.68 0.91-0.88s0.75-0.29 1.21-0.29c0.75 0 1.32 0.23 1.71 0.7 0.39 0.46 0.58 1.15 0.58 2.06zm2.16-2.6h1.08v6.56h-1.08v-6.56zm0-2.56h1.08v1.37h-1.08v-1.37zm3.33 0h1.08v9.12h-1.08v-9.12zm8.94 5.57v0.52h-4.96c0.05 0.75 0.27 1.31 0.67 1.7s0.96 0.58 1.68 0.58c0.41 0 0.81-0.05 1.2-0.15s0.78-0.25 1.16-0.46v1.02c-0.39 0.17-0.78 0.29-1.19 0.38-0.41 0.08-0.82 0.13-1.24 0.13-1.04 0-1.87-0.31-2.48-0.92-0.62-0.61-0.92-1.43-0.92-2.47 0-1.07 0.29-1.93 0.87-2.56s1.36-0.94 2.35-0.94c0.88 0 1.58 0.28 2.09 0.85s0.77 1.34 0.77 2.32zm-1.08-0.32c-0.01-0.59-0.17-1.06-0.49-1.41-0.33-0.35-0.75-0.53-1.28-0.53-0.6 0-1.09 0.17-1.45 0.51s-0.57 0.82-0.62 1.44l3.84-0.01zm5.44-5.24c-0.52 0.9-0.91 1.79-1.17 2.67-0.25 0.88-0.38 1.77-0.38 2.67s0.13 1.8 0.39 2.68c0.25 0.89 0.64 1.78 1.16 2.67h-0.94c-0.58-0.92-1.02-1.82-1.31-2.71-0.29-0.88-0.44-1.76-0.44-2.64 0-0.87 0.14-1.75 0.43-2.63s0.73-1.79 1.32-2.71h0.94zm6.28 2.74v1.02c-0.3-0.16-0.62-0.28-0.95-0.35-0.33-0.08-0.67-0.12-1.02-0.12-0.53 0-0.93 0.08-1.2 0.25-0.27 0.16-0.4 0.41-0.4 0.73 0 0.25 0.09 0.45 0.28 0.59 0.2 0.15 0.58 0.28 1.16 0.41l0.37 0.08c0.76 0.17 1.31 0.4 1.63 0.7s0.48 0.71 0.48 1.25c0 0.61-0.24 1.09-0.72 1.44-0.48 0.36-1.15 0.54-1.99 0.54-0.35 0-0.72-0.04-1.1-0.1-0.38-0.07-0.78-0.18-1.2-0.31v-1.12c0.4 0.21 0.79 0.37 1.17 0.47 0.39 0.1 0.77 0.16 1.15 0.16 0.51 0 0.9-0.09 1.18-0.27 0.27-0.17 0.41-0.41 0.41-0.73 0-0.29-0.1-0.52-0.3-0.67-0.2-0.16-0.63-0.31-1.3-0.46l-0.37-0.08c-0.67-0.14-1.15-0.36-1.45-0.65s-0.45-0.69-0.45-1.2c0-0.62 0.22-1.09 0.66-1.43 0.44-0.33 1.06-0.5 1.86-0.5 0.4 0 0.78 0.03 1.13 0.08 0.35 0.06 0.67 0.15 0.97 0.27zm3.14-2.06v1.87h2.22v0.83h-2.22v3.57c0 0.53 0.07 0.87 0.22 1.03 0.15 0.15 0.45 0.23 0.89 0.23h1.11v0.9h-1.11c-0.83 0-1.4-0.16-1.72-0.47-0.31-0.31-0.47-0.87-0.47-1.69v-3.57h-0.79v-0.83h0.79v-1.87h1.08zm6.63 5.13c-0.87 0-1.48 0.1-1.81 0.3-0.34 0.2-0.51 0.54-0.51 1.02 0 0.38 0.13 0.68 0.38 0.91 0.25 0.22 0.6 0.34 1.03 0.34 0.6 0 1.08-0.22 1.44-0.64s0.54-0.99 0.54-1.69v-0.24h-1.07zm2.15-0.45v3.75h-1.08v-1c-0.25 0.4-0.55 0.69-0.92 0.88s-0.82 0.29-1.35 0.29c-0.67 0-1.2-0.19-1.6-0.57-0.4-0.37-0.59-0.88-0.59-1.51 0-0.74 0.24-1.3 0.74-1.67 0.49-0.38 1.23-0.56 2.21-0.56h1.51v-0.11c0-0.5-0.16-0.88-0.49-1.15-0.32-0.27-0.78-0.41-1.37-0.41-0.38 0-0.74 0.05-1.1 0.14-0.35 0.09-0.7 0.22-1.02 0.4v-1c0.39-0.15 0.77-0.26 1.14-0.34 0.38-0.07 0.74-0.11 1.09-0.11 0.95 0 1.66 0.24 2.13 0.74 0.46 0.49 0.7 1.23 0.7 2.23zm6.95-2.56v1.01c-0.31-0.17-0.61-0.3-0.92-0.38-0.31-0.09-0.61-0.13-0.93-0.13-0.7 0-1.24 0.22-1.63 0.67-0.38 0.44-0.58 1.06-0.58 1.86s0.2 1.43 0.58 1.87c0.39 0.44 0.93 0.66 1.63 0.66 0.32 0 0.62-0.04 0.93-0.12 0.31-0.09 0.61-0.21 0.92-0.38v1c-0.3 0.14-0.61 0.24-0.94 0.31-0.32 0.07-0.66 0.11-1.02 0.11-0.99 0-1.78-0.31-2.36-0.93-0.58-0.63-0.87-1.46-0.87-2.52 0-1.07 0.29-1.91 0.88-2.52 0.59-0.62 1.39-0.92 2.42-0.92 0.33 0 0.65 0.03 0.97 0.1 0.31 0.07 0.62 0.17 0.92 0.31zm1.84-2.81h1.09v5.39l3.21-2.83h1.38l-3.48 3.07 3.63 3.49h-1.41l-3.33-3.21v3.21h-1.09v-9.12zm7.16 7.63h1.23v1.49h-1.23v-1.49zm10.26-6.59v1.25c-0.39-0.37-0.82-0.65-1.27-0.83s-0.93-0.28-1.44-0.28c-1 0-1.76 0.31-2.3 0.92-0.53 0.61-0.79 1.5-0.79 2.65s0.26 2.04 0.79 2.65c0.54 0.61 1.3 0.92 2.3 0.92 0.51 0 0.99-0.1 1.44-0.28s0.88-0.46 1.27-0.83v1.23c-0.41 0.29-0.85 0.5-1.31 0.64s-0.95 0.21-1.47 0.21c-1.32 0-2.37-0.41-3.13-1.22s-1.14-1.92-1.14-3.32 0.38-2.51 1.14-3.32 1.81-1.22 3.13-1.22c0.52 0 1.02 0.07 1.48 0.21s0.9 0.35 1.3 0.62zm4.34 2.27c-0.58 0-1.04 0.23-1.37 0.68-0.34 0.45-0.51 1.07-0.51 1.85 0 0.79 0.17 1.41 0.51 1.86 0.33 0.45 0.79 0.67 1.37 0.67 0.57 0 1.03-0.22 1.37-0.68 0.33-0.45 0.5-1.07 0.5-1.85 0-0.77-0.17-1.39-0.5-1.85-0.34-0.45-0.8-0.68-1.37-0.68zm0-0.91c0.94 0 1.67 0.3 2.21 0.91 0.53 0.61 0.8 1.45 0.8 2.53s-0.27 1.92-0.8 2.53c-0.54 0.61-1.27 0.92-2.21 0.92s-1.68-0.31-2.21-0.92c-0.54-0.61-0.8-1.45-0.8-2.53s0.26-1.92 0.8-2.53c0.53-0.61 1.27-0.91 2.21-0.91zm4.68 4.13v-3.97h1.08v3.93c0 0.62 0.12 1.08 0.36 1.39 0.25 0.31 0.61 0.47 1.09 0.47 0.58 0 1.04-0.19 1.38-0.56s0.51-0.87 0.51-1.51v-3.72h1.08v6.56h-1.08v-1.01c-0.26 0.4-0.57 0.69-0.91 0.89-0.35 0.19-0.75 0.29-1.21 0.29-0.75 0-1.32-0.24-1.71-0.71-0.39-0.46-0.59-1.15-0.59-2.05zm13.19-1.37v3.96h-1.08v-3.93c0-0.62-0.12-1.08-0.37-1.39-0.24-0.31-0.6-0.47-1.09-0.47-0.58 0-1.04 0.19-1.37 0.56-0.34 0.37-0.51 0.88-0.51 1.52v3.71h-1.08v-6.56h1.08v1.01c0.26-0.39 0.56-0.68 0.91-0.88s0.76-0.29 1.21-0.29c0.76 0 1.33 0.23 1.71 0.7 0.39 0.46 0.58 1.15 0.59 2.06zm3.22-4.47v1.87h2.22v0.83h-2.22v3.57c0 0.53 0.08 0.87 0.22 1.03 0.15 0.15 0.45 0.23 0.9 0.23h1.1v0.9h-1.1c-0.84 0-1.41-0.16-1.73-0.47-0.31-0.31-0.47-0.87-0.47-1.69v-3.57h-0.79v-0.83h0.79v-1.87h1.08zm7.61 2.52v-1.06l7.51 2.72v0.97l-7.51 2.73v-1.07l6.03-2.14-6.03-2.15zm16.42-2.06c-0.61 0-1.07 0.3-1.38 0.9-0.3 0.6-0.46 1.5-0.46 2.7s0.16 2.1 0.46 2.7c0.31 0.6 0.77 0.9 1.38 0.9s1.07-0.3 1.38-0.9c0.3-0.6 0.46-1.5 0.46-2.7s-0.16-2.1-0.46-2.7c-0.31-0.6-0.77-0.9-1.38-0.9zm0-0.94c0.98 0 1.73 0.39 2.24 1.16 0.52 0.78 0.78 1.91 0.78 3.38 0 1.48-0.26 2.6-0.78 3.37-0.51 0.78-1.26 1.17-2.24 1.17s-1.73-0.39-2.25-1.17c-0.52-0.77-0.78-1.89-0.78-3.37 0-1.47 0.26-2.6 0.78-3.38 0.52-0.77 1.27-1.16 2.25-1.16zm4.78-0.2h0.94c0.59 0.92 1.03 1.83 1.32 2.71s0.43 1.76 0.43 2.63c0 0.88-0.14 1.76-0.43 2.64-0.29 0.89-0.73 1.79-1.32 2.71h-0.94c0.52-0.89 0.91-1.78 1.17-2.67 0.25-0.88 0.38-1.78 0.38-2.68s-0.13-1.79-0.38-2.67c-0.26-0.88-0.65-1.77-1.17-2.67zm-127.71 25.22v0.84h-0.37c-0.97 0-1.62-0.14-1.95-0.43s-0.5-0.86-0.5-1.73v-1.4c0-0.59-0.1-1-0.31-1.22-0.21-0.23-0.6-0.34-1.15-0.34h-0.36v-0.84h0.36c0.56 0 0.94-0.11 1.15-0.34 0.21-0.22 0.31-0.62 0.31-1.21v-1.4c0-0.87 0.17-1.44 0.5-1.73s0.98-0.43 1.95-0.43h0.37v0.84h-0.4c-0.55 0-0.91 0.08-1.08 0.26-0.17 0.17-0.25 0.53-0.25 1.08v1.45c0 0.62-0.09 1.06-0.27 1.34s-0.48 0.46-0.91 0.56c0.43 0.11 0.74 0.3 0.92 0.58 0.17 0.27 0.26 0.72 0.26 1.33v1.45c0 0.55 0.08 0.91 0.25 1.08 0.17 0.18 0.53 0.26 1.08 0.26h0.4zm1.59 5.81v1.25c-0.4-0.37-0.82-0.65-1.27-0.83s-0.93-0.28-1.44-0.28c-1 0-1.77 0.31-2.3 0.92s-0.8 1.5-0.8 2.65 0.27 2.04 0.8 2.65 1.3 0.92 2.3 0.92c0.51 0 0.99-0.1 1.44-0.28s0.87-0.46 1.27-0.83v1.23c-0.41 0.29-0.85 0.5-1.31 0.64-0.47 0.14-0.96 0.21-1.47 0.21-1.33 0-2.37-0.41-3.13-1.22s-1.14-1.92-1.14-3.32 0.38-2.51 1.14-3.32 1.8-1.22 3.13-1.22c0.52 0 1.01 0.07 1.48 0.21 0.46 0.14 0.89 0.35 1.3 0.62zm4.34 2.27c-0.58 0-1.04 0.23-1.37 0.68-0.34 0.45-0.51 1.07-0.51 1.85 0 0.79 0.17 1.41 0.5 1.86 0.34 0.45 0.79 0.67 1.38 0.67 0.57 0 1.03-0.22 1.36-0.68 0.34-0.45 0.51-1.07 0.51-1.85 0-0.77-0.17-1.39-0.51-1.85-0.33-0.45-0.79-0.68-1.36-0.68zm0-0.91c0.93 0 1.67 0.3 2.21 0.91 0.53 0.61 0.8 1.45 0.8 2.53s-0.27 1.92-0.8 2.53c-0.54 0.61-1.28 0.92-2.21 0.92-0.94 0-1.68-0.31-2.21-0.92-0.54-0.61-0.8-1.45-0.8-2.53s0.26-1.92 0.8-2.53c0.53-0.61 1.27-0.91 2.21-0.91zm10.25 2.76v3.96h-1.08v-3.93c0-0.62-0.12-1.08-0.37-1.39-0.24-0.31-0.6-0.47-1.09-0.47-0.58 0-1.04 0.19-1.37 0.56-0.34 0.37-0.51 0.88-0.51 1.52v3.71h-1.08v-6.56h1.08v1.01c0.26-0.39 0.56-0.68 0.91-0.88s0.76-0.29 1.21-0.29c0.76 0 1.33 0.23 1.71 0.7 0.39 0.46 0.58 1.15 0.59 2.06zm3.22-4.47v1.87h2.22v0.83h-2.22v3.57c0 0.53 0.08 0.87 0.22 1.03 0.15 0.15 0.45 0.23 0.9 0.23h1.1v0.9h-1.1c-0.84 0-1.41-0.16-1.73-0.47-0.31-0.31-0.47-0.87-0.47-1.69v-3.57h-0.79v-0.83h0.79v-1.87h1.08zm7.45 2.87c-0.12-0.07-0.25-0.12-0.39-0.15-0.15-0.04-0.3-0.05-0.48-0.05-0.61 0-1.07 0.2-1.4 0.59-0.33 0.4-0.49 0.97-0.49 1.71v3.46h-1.08v-6.56h1.08v1.01c0.23-0.39 0.52-0.69 0.89-0.88 0.36-0.2 0.8-0.29 1.32-0.29 0.07 0 0.16 0 0.25 0.01s0.19 0.03 0.29 0.05l0.01 1.1zm3.69-0.25c-0.58 0-1.04 0.23-1.37 0.68-0.34 0.45-0.51 1.07-0.51 1.85 0 0.79 0.17 1.41 0.5 1.86 0.34 0.45 0.79 0.67 1.38 0.67 0.57 0 1.03-0.22 1.36-0.68 0.34-0.45 0.51-1.07 0.51-1.85 0-0.77-0.17-1.39-0.51-1.85-0.33-0.45-0.79-0.68-1.36-0.68zm0-0.91c0.93 0 1.67 0.3 2.21 0.91 0.53 0.61 0.8 1.45 0.8 2.53s-0.27 1.92-0.8 2.53c-0.54 0.61-1.28 0.92-2.21 0.92-0.95 0-1.68-0.31-2.22-0.92-0.53-0.61-0.8-1.45-0.8-2.53s0.27-1.92 0.8-2.53c0.54-0.61 1.27-0.91 2.22-0.91zm4.79-2.4h1.08v9.12h-1.08v-9.12zm11.87 2.81v1.01c-0.3-0.17-0.61-0.3-0.92-0.38-0.3-0.09-0.61-0.13-0.93-0.13-0.69 0-1.24 0.22-1.62 0.67-0.39 0.44-0.58 1.06-0.58 1.86s0.19 1.43 0.58 1.87c0.38 0.44 0.93 0.66 1.62 0.66 0.32 0 0.63-0.04 0.93-0.12 0.31-0.09 0.62-0.21 0.92-0.38v1c-0.3 0.14-0.61 0.24-0.93 0.31-0.33 0.07-0.67 0.11-1.03 0.11-0.99 0-1.78-0.31-2.36-0.93-0.58-0.63-0.87-1.46-0.87-2.52 0-1.07 0.29-1.91 0.88-2.52 0.59-0.62 1.39-0.92 2.42-0.92 0.33 0 0.65 0.03 0.97 0.1s0.62 0.17 0.92 0.31zm1.78 3.72v-3.97h1.07v3.93c0 0.62 0.13 1.08 0.37 1.39s0.6 0.47 1.09 0.47c0.58 0 1.04-0.19 1.38-0.56 0.33-0.37 0.5-0.87 0.5-1.51v-3.72h1.08v6.56h-1.08v-1.01c-0.26 0.4-0.56 0.69-0.91 0.89-0.34 0.19-0.74 0.29-1.2 0.29-0.76 0-1.33-0.24-1.72-0.71-0.39-0.46-0.58-1.15-0.58-2.05zm11.53-2.97c-0.12-0.07-0.26-0.12-0.4-0.15-0.14-0.04-0.3-0.05-0.47-0.05-0.61 0-1.08 0.2-1.4 0.59-0.33 0.4-0.49 0.97-0.49 1.71v3.46h-1.09v-6.56h1.09v1.01c0.22-0.39 0.52-0.69 0.88-0.88 0.37-0.2 0.81-0.29 1.33-0.29 0.07 0 0.15 0 0.24 0.01s0.19 0.03 0.3 0.05l0.01 1.1zm4.94 0c-0.12-0.07-0.25-0.12-0.39-0.15-0.15-0.04-0.3-0.05-0.47-0.05-0.61 0-1.08 0.2-1.41 0.59-0.32 0.4-0.49 0.97-0.49 1.71v3.46h-1.08v-6.56h1.08v1.01c0.23-0.39 0.52-0.69 0.89-0.88 0.36-0.2 0.8-0.29 1.32-0.29 0.08 0 0.16 0 0.25 0.01s0.19 0.03 0.3 0.05v1.1zm6.76 2.01v0.52h-4.96c0.05 0.75 0.27 1.31 0.67 1.7s0.96 0.58 1.67 0.58c0.42 0 0.82-0.05 1.21-0.15s0.77-0.25 1.16-0.46v1.02c-0.39 0.17-0.79 0.29-1.19 0.38-0.41 0.08-0.82 0.13-1.24 0.13-1.05 0-1.88-0.31-2.49-0.92s-0.91-1.43-0.91-2.47c0-1.07 0.29-1.93 0.87-2.56s1.36-0.94 2.34-0.94c0.89 0 1.58 0.28 2.1 0.85 0.51 0.57 0.77 1.34 0.77 2.32zm-1.08-0.32c-0.01-0.59-0.17-1.06-0.5-1.41-0.32-0.35-0.74-0.53-1.28-0.53-0.6 0-1.08 0.17-1.44 0.51s-0.57 0.82-0.62 1.44l3.84-0.01zm8.3-0.09v3.96h-1.08v-3.93c0-0.62-0.12-1.08-0.36-1.39s-0.6-0.47-1.09-0.47c-0.58 0-1.04 0.19-1.38 0.56-0.33 0.37-0.5 0.88-0.5 1.52v3.71h-1.08v-6.56h1.08v1.01c0.26-0.39 0.56-0.68 0.91-0.88s0.75-0.29 1.21-0.29c0.76 0 1.33 0.23 1.71 0.7 0.39 0.46 0.58 1.15 0.58 2.06zm3.23-4.47v1.87h2.22v0.83h-2.22v3.57c0 0.53 0.07 0.87 0.22 1.03 0.15 0.15 0.45 0.23 0.89 0.23h1.11v0.9h-1.11c-0.83 0-1.4-0.16-1.72-0.47-0.31-0.31-0.47-0.87-0.47-1.69v-3.57h-0.79v-0.83h0.79v-1.87h1.08zm7.61 2.98h7.51v0.98h-7.51v-0.98zm0 2.39h7.51v1h-7.51v-1zm17.91-3.31v1.02c-0.3-0.16-0.62-0.28-0.94-0.35-0.33-0.08-0.67-0.12-1.02-0.12-0.54 0-0.94 0.08-1.21 0.25-0.27 0.16-0.4 0.41-0.4 0.73 0 0.25 0.1 0.45 0.29 0.59 0.19 0.15 0.57 0.28 1.15 0.41l0.37 0.08c0.77 0.17 1.31 0.4 1.63 0.7 0.33 0.3 0.49 0.71 0.49 1.25 0 0.61-0.24 1.09-0.73 1.44-0.48 0.36-1.14 0.54-1.99 0.54-0.35 0-0.71-0.04-1.1-0.1-0.38-0.07-0.78-0.18-1.2-0.31v-1.12c0.4 0.21 0.79 0.37 1.18 0.47s0.77 0.16 1.15 0.16c0.5 0 0.9-0.09 1.17-0.27 0.27-0.17 0.41-0.41 0.41-0.73 0-0.29-0.1-0.52-0.3-0.67-0.19-0.16-0.63-0.31-1.29-0.46l-0.38-0.08c-0.67-0.14-1.15-0.36-1.45-0.65-0.29-0.29-0.44-0.69-0.44-1.2 0-0.62 0.22-1.09 0.65-1.43 0.44-0.33 1.06-0.5 1.87-0.5 0.4 0 0.77 0.03 1.12 0.08 0.35 0.06 0.68 0.15 0.97 0.27zm3.15-2.06v1.87h2.22v0.83h-2.22v3.57c0 0.53 0.07 0.87 0.22 1.03 0.14 0.15 0.44 0.23 0.89 0.23h1.11v0.9h-1.11c-0.83 0-1.41-0.16-1.72-0.47-0.32-0.31-0.48-0.87-0.48-1.69v-3.57h-0.79v-0.83h0.79v-1.87h1.09zm6.62 5.13c-0.87 0-1.47 0.1-1.81 0.3-0.33 0.2-0.5 0.54-0.5 1.02 0 0.38 0.12 0.68 0.38 0.91 0.25 0.22 0.59 0.34 1.02 0.34 0.6 0 1.08-0.22 1.44-0.64s0.54-0.99 0.54-1.69v-0.24h-1.07zm2.15-0.45v3.75h-1.08v-1c-0.24 0.4-0.55 0.69-0.92 0.88-0.36 0.19-0.81 0.29-1.34 0.29-0.67 0-1.21-0.19-1.61-0.57-0.39-0.37-0.59-0.88-0.59-1.51 0-0.74 0.25-1.3 0.74-1.67 0.5-0.38 1.23-0.56 2.21-0.56h1.51v-0.11c0-0.5-0.16-0.88-0.48-1.15-0.33-0.27-0.79-0.41-1.38-0.41-0.37 0-0.74 0.05-1.09 0.14-0.36 0.09-0.7 0.22-1.03 0.4v-1c0.39-0.15 0.78-0.26 1.15-0.34 0.37-0.07 0.73-0.11 1.08-0.11 0.95 0 1.66 0.24 2.13 0.74 0.47 0.49 0.7 1.23 0.7 2.23zm6.95-2.56v1.01c-0.3-0.17-0.61-0.3-0.92-0.38-0.3-0.09-0.61-0.13-0.92-0.13-0.7 0-1.25 0.22-1.63 0.67-0.39 0.44-0.58 1.06-0.58 1.86s0.19 1.43 0.58 1.87c0.38 0.44 0.93 0.66 1.63 0.66 0.31 0 0.62-0.04 0.92-0.12 0.31-0.09 0.62-0.21 0.92-0.38v1c-0.3 0.14-0.61 0.24-0.93 0.31s-0.67 0.11-1.03 0.11c-0.99 0-1.77-0.31-2.36-0.93-0.58-0.63-0.87-1.46-0.87-2.52 0-1.07 0.29-1.91 0.88-2.52 0.59-0.62 1.4-0.92 2.42-0.92 0.33 0 0.66 0.03 0.97 0.1 0.32 0.07 0.63 0.17 0.92 0.31zm1.85-2.81h1.08v5.39l3.22-2.83h1.38l-3.49 3.07 3.63 3.49h-1.4l-3.34-3.21v3.21h-1.08v-9.12zm7.15 7.63h1.24v1.49h-1.24v-1.49zm4.9-6.29v3.29h1.49c0.55 0 0.98-0.14 1.28-0.43 0.3-0.28 0.45-0.69 0.45-1.22 0-0.52-0.15-0.92-0.45-1.21-0.3-0.28-0.73-0.43-1.28-0.43h-1.49zm-1.18-0.97h2.67c0.98 0 1.72 0.22 2.22 0.66 0.5 0.45 0.76 1.1 0.76 1.95 0 0.87-0.26 1.52-0.76 1.96s-1.24 0.66-2.22 0.66h-1.49v3.52h-1.18v-8.75zm9.74 2.94c-0.58 0-1.04 0.23-1.38 0.68-0.33 0.45-0.5 1.07-0.5 1.85 0 0.79 0.17 1.41 0.5 1.86 0.34 0.45 0.79 0.67 1.38 0.67 0.57 0 1.02-0.22 1.36-0.68 0.34-0.45 0.5-1.07 0.5-1.85 0-0.77-0.16-1.39-0.5-1.85-0.34-0.45-0.79-0.68-1.36-0.68zm0-0.91c0.93 0 1.67 0.3 2.2 0.91 0.54 0.61 0.81 1.45 0.81 2.53s-0.27 1.92-0.81 2.53c-0.53 0.61-1.27 0.92-2.2 0.92-0.95 0-1.68-0.31-2.22-0.92-0.53-0.61-0.8-1.45-0.8-2.53s0.27-1.92 0.8-2.53c0.54-0.61 1.27-0.91 2.22-0.91zm5.83 5.73v3.48h-1.08v-9.05h1.08v0.99c0.23-0.39 0.51-0.68 0.86-0.87s0.76-0.28 1.24-0.28c0.8 0 1.44 0.31 1.94 0.95 0.5 0.63 0.75 1.46 0.75 2.49s-0.25 1.87-0.75 2.5-1.14 0.95-1.94 0.95c-0.48 0-0.89-0.1-1.24-0.29s-0.63-0.48-0.86-0.87zm3.67-2.29c0-0.79-0.16-1.41-0.49-1.86s-0.77-0.68-1.34-0.68c-0.58 0-1.02 0.23-1.35 0.68s-0.49 1.07-0.49 1.86c0 0.8 0.16 1.42 0.49 1.87s0.77 0.68 1.35 0.68c0.57 0 1.01-0.23 1.34-0.68s0.49-1.07 0.49-1.87zm5.5-5.83c-0.53 0.9-0.92 1.79-1.17 2.67s-0.38 1.77-0.38 2.67 0.13 1.8 0.38 2.68c0.26 0.89 0.65 1.78 1.17 2.67h-0.94c-0.59-0.92-1.03-1.82-1.32-2.71-0.29-0.88-0.43-1.76-0.43-2.64 0-0.87 0.14-1.75 0.43-2.63s0.73-1.79 1.32-2.71h0.94zm1.92 0h0.94c0.59 0.92 1.02 1.83 1.32 2.71 0.29 0.88 0.43 1.76 0.43 2.63 0 0.88-0.14 1.76-0.43 2.64-0.3 0.89-0.73 1.79-1.32 2.71h-0.94c0.52-0.89 0.91-1.78 1.17-2.67 0.25-0.88 0.38-1.78 0.38-2.68s-0.13-1.79-0.38-2.67c-0.26-0.88-0.65-1.77-1.17-2.67zm5.14 2.9h1.23v1.49h-1.23v-1.49zm0 4.72h1.23v1.01l-0.96 1.87h-0.75l0.48-1.87v-1.01zm-176.58 9.93h1.08v6.56h-1.08v-6.56zm0-2.56h1.08v1.37h-1.08v-1.37zm6.65 0v0.9h-1.03c-0.38 0-0.65 0.08-0.8 0.23-0.15 0.16-0.23 0.44-0.23 0.85v0.58h1.78v0.83h-1.78v5.73h-1.08v-5.73h-1.03v-0.83h1.03v-0.46c0-0.73 0.17-1.26 0.51-1.6 0.34-0.33 0.88-0.5 1.61-0.5h1.02zm7.31 0.01c-0.52 0.9-0.91 1.79-1.17 2.67-0.25 0.88-0.38 1.77-0.38 2.67s0.13 1.8 0.39 2.68c0.25 0.89 0.64 1.78 1.16 2.67h-0.94c-0.58-0.92-1.02-1.82-1.31-2.71-0.29-0.88-0.44-1.76-0.44-2.64 0-0.87 0.15-1.75 0.43-2.63 0.29-0.88 0.73-1.79 1.32-2.71h0.94zm6.82 2.8v1.01c-0.3-0.17-0.61-0.3-0.92-0.38-0.3-0.09-0.61-0.13-0.93-0.13-0.69 0-1.24 0.22-1.62 0.67-0.39 0.44-0.58 1.06-0.58 1.86s0.19 1.43 0.58 1.87c0.38 0.44 0.93 0.66 1.62 0.66 0.32 0 0.63-0.04 0.93-0.12 0.31-0.09 0.62-0.21 0.92-0.38v1c-0.3 0.14-0.61 0.24-0.93 0.31-0.33 0.07-0.67 0.11-1.03 0.11-0.99 0-1.78-0.31-2.36-0.93-0.58-0.63-0.87-1.46-0.87-2.52 0-1.07 0.29-1.91 0.88-2.52 0.59-0.62 1.39-0.92 2.42-0.92 0.33 0 0.65 0.03 0.97 0.1s0.62 0.17 0.92 0.31zm1.78 3.72v-3.97h1.07v3.93c0 0.62 0.13 1.08 0.37 1.39s0.6 0.47 1.09 0.47c0.58 0 1.04-0.19 1.38-0.56s0.5-0.87 0.5-1.51v-3.72h1.08v6.56h-1.08v-1.01c-0.26 0.4-0.56 0.69-0.91 0.89-0.34 0.19-0.74 0.29-1.2 0.29-0.76 0-1.33-0.24-1.72-0.71-0.39-0.46-0.58-1.15-0.58-2.05zm11.53-2.97c-0.12-0.07-0.26-0.12-0.4-0.15-0.14-0.04-0.3-0.05-0.47-0.05-0.61 0-1.08 0.2-1.4 0.59-0.33 0.4-0.49 0.97-0.49 1.71v3.46h-1.09v-6.56h1.09v1.01c0.22-0.39 0.52-0.69 0.88-0.88 0.37-0.2 0.81-0.29 1.33-0.29 0.07 0 0.15 0 0.24 0.01s0.19 0.03 0.3 0.05l0.01 1.1zm4.94 0c-0.12-0.07-0.25-0.12-0.39-0.15-0.15-0.04-0.3-0.05-0.47-0.05-0.61 0-1.08 0.2-1.41 0.59-0.32 0.4-0.49 0.97-0.49 1.71v3.46h-1.08v-6.56h1.08v1.01c0.23-0.39 0.52-0.69 0.89-0.88 0.36-0.2 0.8-0.29 1.32-0.29 0.08 0 0.16 0 0.25 0.01s0.19 0.03 0.3 0.05v1.1zm6.76 2.01v0.52h-4.96c0.05 0.75 0.27 1.31 0.67 1.7s0.96 0.58 1.68 0.58c0.41 0 0.81-0.05 1.2-0.15s0.77-0.25 1.16-0.46v1.02c-0.39 0.17-0.79 0.29-1.19 0.38-0.41 0.08-0.82 0.13-1.24 0.13-1.05 0-1.88-0.31-2.49-0.92s-0.91-1.43-0.91-2.47c0-1.07 0.29-1.93 0.87-2.56s1.36-0.94 2.34-0.94c0.89 0 1.58 0.28 2.1 0.85 0.51 0.57 0.77 1.34 0.77 2.32zm-1.08-0.32c-0.01-0.59-0.17-1.06-0.49-1.41-0.33-0.35-0.75-0.53-1.29-0.53-0.6 0-1.08 0.17-1.44 0.51s-0.57 0.82-0.62 1.44l3.84-0.01zm8.3-0.09v3.96h-1.08v-3.93c0-0.62-0.12-1.08-0.36-1.39s-0.6-0.47-1.09-0.47c-0.58 0-1.04 0.19-1.38 0.56-0.33 0.37-0.5 0.88-0.5 1.52v3.71h-1.08v-6.56h1.08v1.01c0.26-0.39 0.56-0.68 0.91-0.88s0.76-0.29 1.21-0.29c0.76 0 1.33 0.23 1.71 0.7 0.39 0.46 0.58 1.15 0.58 2.06zm3.23-4.47v1.87h2.22v0.83h-2.22v3.57c0 0.53 0.07 0.87 0.22 1.03 0.15 0.15 0.45 0.23 0.89 0.23h1.11v0.9h-1.11c-0.83 0-1.4-0.16-1.72-0.47-0.31-0.31-0.47-0.87-0.47-1.69v-3.57h-0.79v-0.83h0.79v-1.87h1.08zm3.8 6.94h1.23v1.49h-1.23v-1.49zm3.71-7.26h1.19v8.75h-1.19v-8.75zm4.73 0.97v6.81h1.43c1.2 0 2.09-0.28 2.65-0.83 0.56-0.54 0.84-1.41 0.84-2.59 0-1.17-0.28-2.03-0.84-2.57-0.56-0.55-1.45-0.82-2.65-0.82h-1.43zm-1.19-0.97h2.43c1.7 0 2.94 0.35 3.74 1.06 0.79 0.7 1.19 1.8 1.19 3.3 0 1.51-0.4 2.62-1.2 3.33-0.8 0.7-2.04 1.06-3.73 1.06h-2.43v-8.75zm13.15 3.3h7.51v0.98h-7.51v-0.98zm0 2.39h7.51v1h-7.51v-1zm10.06-2.39h7.51v0.98h-7.51v-0.98zm0 2.39h7.51v1h-7.51v-1zm13.73-3.5h1.08v6.56h-1.08v-6.56zm0-2.56h1.08v1.37h-1.08v-1.37zm7.65 3.55v-3.55h1.07v9.12h-1.07v-0.99c-0.23 0.39-0.52 0.68-0.86 0.87-0.35 0.19-0.76 0.29-1.25 0.29-0.79 0-1.44-0.32-1.93-0.95-0.5-0.63-0.75-1.47-0.75-2.5s0.25-1.86 0.75-2.49c0.49-0.64 1.14-0.95 1.93-0.95 0.49 0 0.9 0.09 1.25 0.28 0.34 0.19 0.63 0.48 0.86 0.87zm-3.68 2.29c0 0.8 0.17 1.42 0.49 1.87 0.33 0.45 0.78 0.68 1.35 0.68s1.02-0.23 1.34-0.68c0.33-0.45 0.5-1.07 0.5-1.87 0-0.79-0.17-1.41-0.5-1.86-0.32-0.45-0.77-0.68-1.34-0.68s-1.02 0.23-1.35 0.68c-0.32 0.45-0.49 1.07-0.49 1.86zm6.81-5.83h0.93c0.59 0.92 1.03 1.83 1.32 2.71s0.43 1.76 0.43 2.63c0 0.88-0.14 1.76-0.43 2.64-0.29 0.89-0.73 1.79-1.32 2.71h-0.93c0.51-0.89 0.9-1.78 1.16-2.67 0.25-0.88 0.38-1.78 0.38-2.68s-0.13-1.79-0.38-2.67c-0.26-0.88-0.65-1.77-1.16-2.67zm-103.56 18.55c-0.12-0.07-0.26-0.12-0.4-0.15-0.14-0.04-0.3-0.05-0.47-0.05-0.61 0-1.08 0.2-1.4 0.59-0.33 0.4-0.49 0.97-0.49 1.71v3.46h-1.09v-6.56h1.09v1.01c0.22-0.39 0.52-0.69 0.88-0.88 0.36-0.2 0.81-0.29 1.33-0.29 0.07 0 0.15 0 0.24 0.01s0.19 0.03 0.3 0.05l0.01 1.1zm6.75 2.01v0.52h-4.95c0.04 0.75 0.27 1.31 0.67 1.7s0.95 0.58 1.67 0.58c0.41 0 0.81-0.05 1.2-0.15s0.78-0.25 1.16-0.46v1.02c-0.39 0.17-0.78 0.29-1.19 0.38-0.41 0.08-0.82 0.13-1.24 0.13-1.04 0-1.87-0.31-2.48-0.92s-0.92-1.43-0.92-2.47c0-1.07 0.29-1.93 0.87-2.56s1.36-0.94 2.35-0.94c0.88 0 1.58 0.28 2.09 0.85 0.52 0.57 0.77 1.34 0.77 2.32zm-1.08-0.32c0-0.59-0.17-1.06-0.49-1.41s-0.75-0.53-1.28-0.53c-0.6 0-1.08 0.17-1.45 0.51-0.36 0.34-0.56 0.82-0.62 1.44l3.84-0.01zm3.92-4.56v1.87h2.22v0.83h-2.22v3.57c0 0.53 0.07 0.87 0.22 1.03 0.14 0.15 0.44 0.23 0.89 0.23h1.11v0.9h-1.11c-0.83 0-1.4-0.16-1.72-0.47s-0.48-0.87-0.48-1.69v-3.57h-0.79v-0.83h0.79v-1.87h1.09zm3.53 5.84v-3.97h1.08v3.93c0 0.62 0.12 1.08 0.36 1.39 0.25 0.31 0.61 0.47 1.09 0.47 0.59 0 1.04-0.19 1.38-0.56s0.51-0.87 0.51-1.51v-3.72h1.08v6.56h-1.08v-1.01c-0.26 0.4-0.57 0.69-0.91 0.89-0.35 0.19-0.75 0.29-1.21 0.29-0.75 0-1.32-0.24-1.71-0.71-0.39-0.46-0.59-1.15-0.59-2.05zm11.53-2.97c-0.12-0.07-0.25-0.12-0.39-0.15-0.15-0.04-0.3-0.05-0.47-0.05-0.61 0-1.08 0.2-1.41 0.59-0.32 0.4-0.49 0.97-0.49 1.71v3.46h-1.08v-6.56h1.08v1.01c0.23-0.39 0.52-0.69 0.89-0.88 0.36-0.2 0.8-0.29 1.32-0.29 0.08 0 0.16 0 0.25 0.01s0.19 0.03 0.3 0.05v1.1zm6.6 1.6v3.96h-1.08v-3.93c0-0.62-0.12-1.08-0.36-1.39s-0.61-0.47-1.09-0.47c-0.58 0-1.04 0.19-1.38 0.56-0.33 0.37-0.5 0.88-0.5 1.52v3.71h-1.09v-6.56h1.09v1.01c0.26-0.39 0.56-0.68 0.91-0.88s0.75-0.29 1.21-0.29c0.75 0 1.32 0.23 1.71 0.7 0.39 0.46 0.58 1.15 0.58 2.06zm10.71-2.35v1.01c-0.31-0.17-0.61-0.3-0.92-0.38-0.31-0.09-0.62-0.13-0.93-0.13-0.7 0-1.24 0.22-1.63 0.67-0.39 0.44-0.58 1.06-0.58 1.86s0.19 1.43 0.58 1.87 0.93 0.66 1.63 0.66c0.31 0 0.62-0.04 0.93-0.12 0.31-0.09 0.61-0.21 0.92-0.38v1c-0.31 0.14-0.62 0.24-0.94 0.31s-0.66 0.11-1.03 0.11c-0.99 0-1.77-0.31-2.35-0.93-0.58-0.63-0.88-1.46-0.88-2.52 0-1.07 0.3-1.91 0.89-2.52 0.58-0.62 1.39-0.92 2.41-0.92 0.34 0 0.66 0.03 0.98 0.1 0.31 0.07 0.62 0.17 0.92 0.31zm1.77 3.72v-3.97h1.08v3.93c0 0.62 0.12 1.08 0.36 1.39s0.61 0.47 1.09 0.47c0.58 0 1.04-0.19 1.38-0.56s0.51-0.87 0.51-1.51v-3.72h1.08v6.56h-1.08v-1.01c-0.26 0.4-0.57 0.69-0.91 0.89-0.35 0.19-0.75 0.29-1.21 0.29-0.75 0-1.32-0.24-1.71-0.71-0.39-0.46-0.59-1.15-0.59-2.05zm11.53-2.97c-0.12-0.07-0.25-0.12-0.39-0.15-0.15-0.04-0.3-0.05-0.47-0.05-0.61 0-1.08 0.2-1.41 0.59-0.32 0.4-0.49 0.97-0.49 1.71v3.46h-1.08v-6.56h1.08v1.01c0.23-0.39 0.52-0.69 0.89-0.88 0.36-0.2 0.8-0.29 1.32-0.29 0.08 0 0.16 0 0.25 0.01s0.19 0.03 0.3 0.05v1.1zm4.95 0c-0.12-0.07-0.26-0.12-0.4-0.15-0.14-0.04-0.3-0.05-0.47-0.05-0.61 0-1.08 0.2-1.4 0.59-0.33 0.4-0.49 0.97-0.49 1.71v3.46h-1.09v-6.56h1.09v1.01c0.22-0.39 0.52-0.69 0.88-0.88 0.37-0.2 0.81-0.29 1.33-0.29 0.07 0 0.15 0 0.24 0.01s0.19 0.03 0.3 0.05l0.01 1.1zm6.75 2.01v0.52h-4.95c0.04 0.75 0.27 1.31 0.67 1.7s0.96 0.58 1.67 0.58c0.41 0 0.82-0.05 1.2-0.15 0.39-0.1 0.78-0.25 1.16-0.46v1.02c-0.39 0.17-0.78 0.29-1.19 0.38-0.4 0.08-0.82 0.13-1.23 0.13-1.05 0-1.88-0.31-2.49-0.92s-0.92-1.43-0.92-2.47c0-1.07 0.29-1.93 0.87-2.56s1.36-0.94 2.35-0.94c0.88 0 1.58 0.28 2.09 0.85 0.52 0.57 0.77 1.34 0.77 2.32zm-1.07-0.32c-0.01-0.59-0.18-1.06-0.5-1.41s-0.75-0.53-1.28-0.53c-0.6 0-1.08 0.17-1.44 0.51-0.37 0.34-0.57 0.82-0.63 1.44l3.85-0.01zm8.3-0.09v3.96h-1.08v-3.93c0-0.62-0.12-1.08-0.36-1.39-0.25-0.31-0.61-0.47-1.09-0.47-0.59 0-1.04 0.19-1.38 0.56s-0.5 0.88-0.5 1.52v3.71h-1.09v-6.56h1.09v1.01c0.25-0.39 0.56-0.68 0.91-0.88s0.75-0.29 1.21-0.29c0.75 0 1.32 0.23 1.71 0.7 0.38 0.46 0.58 1.15 0.58 2.06zm3.23-4.47v1.87h2.22v0.83h-2.22v3.57c0 0.53 0.07 0.87 0.22 1.03 0.14 0.15 0.44 0.23 0.89 0.23h1.11v0.9h-1.11c-0.83 0-1.41-0.16-1.72-0.47-0.32-0.31-0.48-0.87-0.48-1.69v-3.57h-0.79v-0.83h0.79v-1.87h1.09zm3.92 2.22h1.23v1.49h-1.23v-1.49zm0 4.72h1.23v1.01l-0.96 1.87h-0.75l0.48-1.87v-1.01zm-89.46 7.37v0.9h-1.04c-0.38 0-0.65 0.08-0.8 0.23-0.15 0.16-0.23 0.44-0.23 0.85v0.58h1.78v0.83h-1.78v5.73h-1.08v-5.73h-1.03v-0.83h1.03v-0.46c0-0.73 0.17-1.26 0.51-1.6 0.34-0.33 0.88-0.5 1.62-0.5h1.02zm3.44 3.31c-0.58 0-1.04 0.23-1.38 0.68-0.33 0.45-0.5 1.07-0.5 1.85 0 0.79 0.17 1.41 0.5 1.86 0.34 0.45 0.79 0.67 1.38 0.67 0.57 0 1.02-0.22 1.36-0.68 0.34-0.45 0.5-1.07 0.5-1.85 0-0.77-0.16-1.39-0.5-1.85-0.34-0.45-0.79-0.68-1.36-0.68zm0-0.91c0.93 0 1.67 0.3 2.2 0.91 0.54 0.61 0.81 1.45 0.81 2.53s-0.27 1.92-0.81 2.53c-0.53 0.61-1.27 0.92-2.2 0.92-0.95 0-1.68-0.31-2.22-0.92-0.53-0.61-0.8-1.45-0.8-2.53s0.27-1.92 0.8-2.53c0.54-0.61 1.27-0.91 2.22-0.91zm8.59 1.16c-0.12-0.07-0.25-0.12-0.39-0.15-0.15-0.04-0.3-0.05-0.48-0.05-0.61 0-1.07 0.2-1.4 0.59-0.33 0.4-0.49 0.97-0.49 1.71v3.46h-1.08v-6.56h1.08v1.01c0.23-0.39 0.52-0.69 0.89-0.88 0.36-0.2 0.8-0.29 1.32-0.29 0.07 0 0.16 0 0.25 0.01s0.19 0.03 0.29 0.05l0.01 1.1zm6.76 2.01v0.52h-4.96c0.05 0.75 0.27 1.31 0.67 1.7s0.96 0.58 1.67 0.58c0.42 0 0.82-0.05 1.21-0.15s0.77-0.25 1.15-0.46v1.02c-0.38 0.17-0.78 0.29-1.18 0.38-0.41 0.08-0.82 0.13-1.24 0.13-1.05 0-1.88-0.31-2.49-0.92s-0.92-1.43-0.92-2.47c0-1.07 0.29-1.93 0.87-2.56s1.37-0.94 2.35-0.94c0.88 0 1.58 0.28 2.1 0.85 0.51 0.57 0.77 1.34 0.77 2.32zm-1.08-0.32c-0.01-0.59-0.17-1.06-0.5-1.41-0.32-0.35-0.75-0.53-1.28-0.53-0.6 0-1.08 0.17-1.44 0.51s-0.57 0.82-0.63 1.44l3.85-0.01zm5.83 0.57c-0.87 0-1.48 0.1-1.81 0.3-0.34 0.2-0.51 0.54-0.51 1.02 0 0.38 0.13 0.68 0.38 0.91 0.25 0.22 0.6 0.34 1.03 0.34 0.6 0 1.08-0.22 1.44-0.64s0.54-0.99 0.54-1.69v-0.24h-1.07zm2.15-0.45v3.75h-1.08v-1c-0.25 0.4-0.55 0.69-0.92 0.88s-0.82 0.29-1.35 0.29c-0.67 0-1.2-0.19-1.6-0.57-0.4-0.37-0.59-0.88-0.59-1.51 0-0.74 0.24-1.3 0.74-1.67 0.49-0.38 1.23-0.56 2.21-0.56h1.51v-0.11c0-0.5-0.16-0.88-0.49-1.15-0.32-0.27-0.78-0.41-1.37-0.41-0.38 0-0.74 0.05-1.1 0.14-0.35 0.09-0.7 0.22-1.02 0.4v-1c0.39-0.15 0.77-0.26 1.14-0.34 0.38-0.07 0.74-0.11 1.09-0.11 0.95 0 1.66 0.24 2.13 0.74 0.46 0.49 0.7 1.23 0.7 2.23zm6.95-2.56v1.01c-0.31-0.17-0.61-0.3-0.92-0.38-0.31-0.09-0.62-0.13-0.93-0.13-0.7 0-1.24 0.22-1.63 0.67-0.38 0.44-0.58 1.06-0.58 1.86s0.2 1.43 0.58 1.87c0.39 0.44 0.93 0.66 1.63 0.66 0.31 0 0.62-0.04 0.93-0.12 0.31-0.09 0.61-0.21 0.92-0.38v1c-0.3 0.14-0.61 0.24-0.94 0.31-0.32 0.07-0.66 0.11-1.02 0.11-0.99 0-1.78-0.31-2.36-0.93-0.58-0.63-0.87-1.46-0.87-2.52 0-1.07 0.29-1.91 0.88-2.52 0.59-0.62 1.39-0.92 2.42-0.92 0.33 0 0.65 0.03 0.97 0.1 0.31 0.07 0.62 0.17 0.92 0.31zm7.34 2.35v3.96h-1.08v-3.93c0-0.62-0.12-1.08-0.36-1.39s-0.61-0.47-1.09-0.47c-0.58 0-1.04 0.19-1.38 0.56-0.33 0.37-0.5 0.88-0.5 1.52v3.71h-1.09v-9.12h1.09v3.57c0.26-0.39 0.56-0.68 0.91-0.88s0.75-0.29 1.21-0.29c0.75 0 1.32 0.23 1.71 0.7 0.39 0.46 0.58 1.15 0.58 2.06zm8.57-5.15c-0.52 0.9-0.91 1.79-1.16 2.67-0.26 0.88-0.38 1.77-0.38 2.67s0.12 1.8 0.38 2.68c0.26 0.89 0.64 1.78 1.16 2.67h-0.94c-0.58-0.92-1.02-1.82-1.31-2.71-0.29-0.88-0.44-1.76-0.44-2.64 0-0.87 0.15-1.75 0.44-2.63s0.72-1.79 1.31-2.71h0.94zm8.7 1.03v1.25c-0.4-0.37-0.83-0.65-1.28-0.83s-0.93-0.28-1.44-0.28c-1 0-1.76 0.31-2.29 0.92s-0.8 1.5-0.8 2.65 0.27 2.04 0.8 2.65 1.29 0.92 2.29 0.92c0.51 0 0.99-0.1 1.44-0.28s0.88-0.46 1.28-0.83v1.23c-0.42 0.29-0.85 0.5-1.32 0.64-0.46 0.14-0.95 0.21-1.47 0.21-1.32 0-2.36-0.41-3.12-1.22-0.77-0.81-1.15-1.92-1.15-3.32s0.38-2.51 1.15-3.32c0.76-0.81 1.8-1.22 3.12-1.22 0.53 0 1.02 0.07 1.48 0.21 0.47 0.14 0.9 0.35 1.31 0.62zm4.33 2.27c-0.57 0-1.03 0.23-1.37 0.68-0.33 0.45-0.5 1.07-0.5 1.85 0 0.79 0.17 1.41 0.5 1.86s0.79 0.67 1.37 0.67 1.03-0.22 1.37-0.68c0.33-0.45 0.5-1.07 0.5-1.85 0-0.77-0.17-1.39-0.5-1.85-0.34-0.45-0.79-0.68-1.37-0.68zm0-0.91c0.94 0 1.68 0.3 2.21 0.91 0.54 0.61 0.81 1.45 0.81 2.53s-0.27 1.92-0.81 2.53c-0.53 0.61-1.27 0.92-2.21 0.92s-1.68-0.31-2.21-0.92-0.8-1.45-0.8-2.53 0.27-1.92 0.8-2.53 1.27-0.91 2.21-0.91zm10.25 2.76v3.96h-1.08v-3.93c0-0.62-0.12-1.08-0.36-1.39s-0.61-0.47-1.09-0.47c-0.58 0-1.04 0.19-1.38 0.56-0.33 0.37-0.5 0.88-0.5 1.52v3.71h-1.08v-6.56h1.08v1.01c0.26-0.39 0.56-0.68 0.91-0.88s0.75-0.29 1.21-0.29c0.75 0 1.32 0.23 1.71 0.7 0.39 0.46 0.58 1.15 0.58 2.06zm3.23-4.47v1.87h2.22v0.83h-2.22v3.57c0 0.53 0.07 0.87 0.22 1.03 0.15 0.15 0.44 0.23 0.89 0.23h1.11v0.9h-1.11c-0.83 0-1.4-0.16-1.72-0.47s-0.47-0.87-0.47-1.69v-3.57h-0.79v-0.83h0.79v-1.87h1.08zm7.45 2.87c-0.12-0.07-0.26-0.12-0.4-0.15-0.14-0.04-0.3-0.05-0.47-0.05-0.61 0-1.08 0.2-1.4 0.59-0.33 0.4-0.49 0.97-0.49 1.71v3.46h-1.09v-6.56h1.09v1.01c0.22-0.39 0.52-0.69 0.88-0.88 0.37-0.2 0.81-0.29 1.33-0.29 0.07 0 0.15 0 0.24 0.01s0.19 0.03 0.3 0.05l0.01 1.1zm3.68-0.25c-0.58 0-1.03 0.23-1.37 0.68-0.33 0.45-0.5 1.07-0.5 1.85 0 0.79 0.16 1.41 0.5 1.86 0.33 0.45 0.79 0.67 1.37 0.67s1.03-0.22 1.37-0.68c0.33-0.45 0.5-1.07 0.5-1.85 0-0.77-0.17-1.39-0.5-1.85-0.34-0.45-0.79-0.68-1.37-0.68zm0-0.91c0.94 0 1.68 0.3 2.21 0.91 0.54 0.61 0.8 1.45 0.8 2.53s-0.26 1.92-0.8 2.53c-0.53 0.61-1.27 0.92-2.21 0.92s-1.68-0.31-2.21-0.92-0.8-1.45-0.8-2.53 0.27-1.92 0.8-2.53 1.27-0.91 2.21-0.91zm4.8-2.4h1.07v9.12h-1.07v-9.12zm11.87 2.81v1.01c-0.31-0.17-0.61-0.3-0.92-0.38-0.31-0.09-0.62-0.13-0.93-0.13-0.7 0-1.24 0.22-1.63 0.67-0.38 0.44-0.58 1.06-0.58 1.86s0.2 1.43 0.58 1.87c0.39 0.44 0.93 0.66 1.63 0.66 0.31 0 0.62-0.04 0.93-0.12 0.31-0.09 0.61-0.21 0.92-0.38v1c-0.3 0.14-0.62 0.24-0.94 0.31s-0.66 0.11-1.03 0.11c-0.98 0-1.77-0.31-2.35-0.93-0.58-0.63-0.87-1.46-0.87-2.52 0-1.07 0.29-1.91 0.88-2.52 0.59-0.62 1.39-0.92 2.41-0.92 0.34 0 0.66 0.03 0.98 0.1 0.31 0.07 0.62 0.17 0.92 0.31zm4.43 0.5c-0.58 0-1.04 0.23-1.37 0.68-0.34 0.45-0.51 1.07-0.51 1.85 0 0.79 0.17 1.41 0.5 1.86 0.34 0.45 0.79 0.67 1.38 0.67 0.57 0 1.03-0.22 1.36-0.68 0.34-0.45 0.51-1.07 0.51-1.85 0-0.77-0.17-1.39-0.51-1.85-0.33-0.45-0.79-0.68-1.36-0.68zm0-0.91c0.93 0 1.67 0.3 2.21 0.91 0.53 0.61 0.8 1.45 0.8 2.53s-0.27 1.92-0.8 2.53c-0.54 0.61-1.28 0.92-2.21 0.92-0.94 0-1.68-0.31-2.22-0.92-0.53-0.61-0.8-1.45-0.8-2.53s0.27-1.92 0.8-2.53c0.54-0.61 1.28-0.91 2.22-0.91zm10.24 2.76v3.96h-1.07v-3.93c0-0.62-0.12-1.08-0.37-1.39-0.24-0.31-0.6-0.47-1.09-0.47-0.58 0-1.04 0.19-1.37 0.56-0.34 0.37-0.51 0.88-0.51 1.52v3.71h-1.08v-6.56h1.08v1.01c0.26-0.39 0.56-0.68 0.91-0.88s0.76-0.29 1.21-0.29c0.76 0 1.33 0.23 1.71 0.7 0.39 0.46 0.58 1.15 0.58 2.06zm3.23-4.47v1.87h2.22v0.83h-2.22v3.57c0 0.53 0.08 0.87 0.22 1.03 0.15 0.15 0.45 0.23 0.9 0.23h1.1v0.9h-1.1c-0.84 0-1.41-0.16-1.73-0.47-0.31-0.31-0.47-0.87-0.47-1.69v-3.57h-0.79v-0.83h0.79v-1.87h1.08zm7.45 2.87c-0.12-0.07-0.25-0.12-0.4-0.15-0.14-0.04-0.29-0.05-0.47-0.05-0.61 0-1.07 0.2-1.4 0.59-0.33 0.4-0.49 0.97-0.49 1.71v3.46h-1.08v-6.56h1.08v1.01c0.23-0.39 0.52-0.69 0.89-0.88 0.36-0.2 0.8-0.29 1.32-0.29 0.07 0 0.16 0 0.25 0.01s0.19 0.03 0.29 0.05l0.01 1.1zm3.69-0.25c-0.58 0-1.04 0.23-1.38 0.68-0.33 0.45-0.5 1.07-0.5 1.85 0 0.79 0.17 1.41 0.5 1.86 0.34 0.45 0.79 0.67 1.38 0.67 0.57 0 1.03-0.22 1.36-0.68 0.34-0.45 0.51-1.07 0.51-1.85 0-0.77-0.17-1.39-0.51-1.85-0.33-0.45-0.79-0.68-1.36-0.68zm0-0.91c0.93 0 1.67 0.3 2.2 0.91 0.54 0.61 0.81 1.45 0.81 2.53s-0.27 1.92-0.81 2.53c-0.53 0.61-1.27 0.92-2.2 0.92-0.95 0-1.68-0.31-2.22-0.92-0.53-0.61-0.8-1.45-0.8-2.53s0.27-1.92 0.8-2.53c0.54-0.61 1.27-0.91 2.22-0.91zm4.79-2.4h1.08v9.12h-1.08v-9.12zm7.15 2.56h1.08v6.56h-1.08v-6.56zm0-2.56h1.08v1.37h-1.08v-1.37zm8.78 5.16v3.96h-1.08v-3.93c0-0.62-0.12-1.08-0.36-1.39s-0.61-0.47-1.09-0.47c-0.58 0-1.04 0.19-1.38 0.56-0.33 0.37-0.5 0.88-0.5 1.52v3.71h-1.09v-6.56h1.09v1.01c0.26-0.39 0.56-0.68 0.91-0.88s0.75-0.29 1.21-0.29c0.75 0 1.32 0.23 1.71 0.7 0.39 0.46 0.58 1.15 0.58 2.06zm-151.22 12.65v1.01c-0.31-0.17-0.61-0.3-0.92-0.38-0.31-0.09-0.62-0.13-0.93-0.13-0.7 0-1.24 0.22-1.63 0.67-0.39 0.44-0.58 1.06-0.58 1.86s0.19 1.43 0.58 1.87 0.93 0.66 1.63 0.66c0.31 0 0.62-0.04 0.93-0.12 0.31-0.09 0.61-0.21 0.92-0.38v1c-0.3 0.14-0.62 0.24-0.94 0.31s-0.66 0.11-1.03 0.11c-0.99 0-1.77-0.31-2.35-0.93-0.58-0.63-0.88-1.46-0.88-2.52 0-1.07 0.3-1.91 0.89-2.52 0.58-0.62 1.39-0.92 2.41-0.92 0.34 0 0.66 0.03 0.98 0.1 0.31 0.07 0.62 0.17 0.92 0.31zm1.77 3.72v-3.97h1.08v3.93c0 0.62 0.12 1.08 0.36 1.39 0.25 0.31 0.61 0.47 1.09 0.47 0.58 0 1.04-0.19 1.38-0.56s0.51-0.87 0.51-1.51v-3.72h1.08v6.56h-1.08v-1.01c-0.26 0.4-0.57 0.69-0.91 0.89-0.35 0.19-0.75 0.29-1.21 0.29-0.75 0-1.32-0.24-1.71-0.71-0.39-0.46-0.59-1.15-0.59-2.05zm11.53-2.97c-0.12-0.07-0.25-0.12-0.39-0.15-0.15-0.04-0.3-0.05-0.47-0.05-0.61 0-1.08 0.2-1.41 0.59-0.32 0.4-0.49 0.97-0.49 1.71v3.46h-1.08v-6.56h1.08v1.01c0.23-0.39 0.52-0.69 0.89-0.88 0.36-0.2 0.8-0.29 1.32-0.29 0.08 0 0.16 0 0.25 0.01s0.19 0.03 0.3 0.05v1.1zm4.95 0c-0.12-0.07-0.25-0.12-0.4-0.15-0.14-0.04-0.3-0.05-0.47-0.05-0.61 0-1.08 0.2-1.4 0.59-0.33 0.4-0.49 0.97-0.49 1.71v3.46h-1.09v-6.56h1.09v1.01c0.22-0.39 0.52-0.69 0.88-0.88 0.37-0.2 0.81-0.29 1.33-0.29 0.07 0 0.15 0 0.24 0.01s0.19 0.03 0.3 0.05l0.01 1.1zm6.75 2.01v0.52h-4.95c0.04 0.75 0.27 1.31 0.67 1.7s0.96 0.58 1.67 0.58c0.41 0 0.82-0.05 1.2-0.15 0.39-0.1 0.78-0.25 1.16-0.46v1.02c-0.38 0.17-0.78 0.29-1.19 0.38-0.4 0.08-0.82 0.13-1.23 0.13-1.05 0-1.88-0.31-2.49-0.92s-0.92-1.43-0.92-2.47c0-1.07 0.29-1.93 0.87-2.56s1.36-0.94 2.35-0.94c0.88 0 1.58 0.28 2.09 0.85 0.52 0.57 0.77 1.34 0.77 2.32zm-1.07-0.32c-0.01-0.59-0.18-1.06-0.5-1.41s-0.75-0.53-1.28-0.53c-0.6 0-1.08 0.17-1.44 0.51-0.37 0.34-0.57 0.82-0.63 1.44l3.85-0.01zm8.3-0.09v3.96h-1.08v-3.93c0-0.62-0.12-1.08-0.36-1.39-0.25-0.31-0.61-0.47-1.09-0.47-0.58 0-1.04 0.19-1.38 0.56s-0.5 0.88-0.5 1.52v3.71h-1.09v-6.56h1.09v1.01c0.25-0.39 0.56-0.68 0.91-0.88s0.75-0.29 1.21-0.29c0.75 0 1.32 0.23 1.71 0.7 0.39 0.46 0.58 1.15 0.58 2.06zm3.23-4.47v1.87h2.22v0.83h-2.22v3.57c0 0.53 0.07 0.87 0.22 1.03 0.14 0.15 0.44 0.23 0.89 0.23h1.11v0.9h-1.11c-0.83 0-1.41-0.16-1.72-0.47-0.32-0.31-0.48-0.87-0.48-1.69v-3.57h-0.79v-0.83h0.79v-1.87h1.09zm3.79 6.94h1.24v1.49h-1.24v-1.49zm10.27-6.59v1.25c-0.4-0.37-0.82-0.65-1.27-0.83-0.46-0.18-0.94-0.28-1.44-0.28-1 0-1.77 0.31-2.3 0.92s-0.8 1.5-0.8 2.65 0.27 2.04 0.8 2.65 1.3 0.92 2.3 0.92c0.5 0 0.98-0.1 1.44-0.28 0.45-0.18 0.87-0.46 1.27-0.83v1.23c-0.41 0.29-0.85 0.5-1.32 0.64-0.46 0.14-0.95 0.21-1.46 0.21-1.33 0-2.37-0.41-3.13-1.22s-1.15-1.92-1.15-3.32 0.39-2.51 1.15-3.32 1.8-1.22 3.13-1.22c0.52 0 1.01 0.07 1.48 0.21 0.46 0.14 0.89 0.35 1.3 0.62zm4.34 2.27c-0.58 0-1.04 0.23-1.38 0.68-0.33 0.45-0.5 1.07-0.5 1.85 0 0.79 0.17 1.41 0.5 1.86 0.34 0.45 0.79 0.67 1.38 0.67 0.57 0 1.02-0.22 1.36-0.68 0.34-0.45 0.5-1.07 0.5-1.85 0-0.77-0.16-1.39-0.5-1.85-0.34-0.45-0.79-0.68-1.36-0.68zm0-0.91c0.93 0 1.67 0.3 2.2 0.91 0.54 0.61 0.81 1.45 0.81 2.53s-0.27 1.92-0.81 2.53c-0.53 0.61-1.27 0.92-2.2 0.92-0.95 0-1.68-0.31-2.22-0.92-0.53-0.61-0.8-1.45-0.8-2.53s0.27-1.92 0.8-2.53c0.54-0.61 1.27-0.91 2.22-0.91zm10.24 2.76v3.96h-1.07v-3.93c0-0.62-0.13-1.08-0.37-1.39s-0.6-0.47-1.09-0.47c-0.58 0-1.04 0.19-1.37 0.56-0.34 0.37-0.51 0.88-0.51 1.52v3.71h-1.08v-6.56h1.08v1.01c0.26-0.39 0.56-0.68 0.91-0.88s0.76-0.29 1.21-0.29c0.76 0 1.33 0.23 1.71 0.7 0.39 0.46 0.58 1.15 0.58 2.06zm3.23-4.47v1.87h2.22v0.83h-2.22v3.57c0 0.53 0.08 0.87 0.22 1.03 0.15 0.15 0.45 0.23 0.9 0.23h1.1v0.9h-1.1c-0.84 0-1.41-0.16-1.73-0.47-0.31-0.31-0.47-0.87-0.47-1.69v-3.57h-0.79v-0.83h0.79v-1.87h1.08zm7.45 2.87c-0.12-0.07-0.25-0.12-0.4-0.15-0.14-0.04-0.3-0.05-0.47-0.05-0.61 0-1.08 0.2-1.4 0.59-0.33 0.4-0.49 0.97-0.49 1.71v3.46h-1.08v-6.56h1.08v1.01c0.23-0.39 0.52-0.69 0.88-0.88 0.37-0.2 0.81-0.29 1.33-0.29 0.07 0 0.15 0 0.24 0.01s0.19 0.03 0.3 0.05l0.01 1.1zm3.68-0.25c-0.57 0-1.03 0.23-1.37 0.68-0.33 0.45-0.5 1.07-0.5 1.85 0 0.79 0.17 1.41 0.5 1.86s0.79 0.67 1.37 0.67 1.03-0.22 1.37-0.68c0.34-0.45 0.5-1.07 0.5-1.85 0-0.77-0.16-1.39-0.5-1.85-0.34-0.45-0.79-0.68-1.37-0.68zm0-0.91c0.94 0 1.68 0.3 2.21 0.91 0.54 0.61 0.81 1.45 0.81 2.53s-0.27 1.92-0.81 2.53c-0.53 0.61-1.27 0.92-2.21 0.92s-1.67-0.31-2.21-0.92c-0.53-0.61-0.8-1.45-0.8-2.53s0.27-1.92 0.8-2.53c0.54-0.61 1.27-0.91 2.21-0.91zm4.8-2.4h1.08v9.12h-1.08v-9.12zm7.51 2.75v1.02c-0.31-0.16-0.62-0.28-0.95-0.35-0.33-0.08-0.67-0.12-1.02-0.12-0.53 0-0.94 0.08-1.2 0.25-0.27 0.16-0.4 0.41-0.4 0.73 0 0.25 0.09 0.45 0.28 0.59 0.19 0.15 0.58 0.28 1.16 0.41l0.37 0.08c0.76 0.17 1.31 0.4 1.63 0.7s0.48 0.71 0.48 1.25c0 0.61-0.24 1.09-0.72 1.44-0.49 0.36-1.15 0.54-1.99 0.54-0.35 0-0.72-0.04-1.1-0.1-0.38-0.07-0.78-0.18-1.2-0.31v-1.12c0.39 0.21 0.79 0.37 1.17 0.47 0.39 0.1 0.77 0.16 1.15 0.16 0.51 0 0.9-0.09 1.17-0.27 0.28-0.17 0.41-0.41 0.41-0.73 0-0.29-0.1-0.52-0.29-0.67-0.2-0.16-0.63-0.31-1.3-0.46l-0.38-0.08c-0.66-0.14-1.15-0.36-1.44-0.65-0.3-0.29-0.45-0.69-0.45-1.2 0-0.62 0.22-1.09 0.66-1.43 0.44-0.33 1.06-0.5 1.86-0.5 0.4 0 0.78 0.03 1.13 0.08 0.35 0.06 0.67 0.15 0.97 0.27zm1.9-2.74h0.94c0.59 0.92 1.03 1.83 1.32 2.71s0.43 1.76 0.43 2.63c0 0.88-0.14 1.76-0.43 2.64-0.29 0.89-0.73 1.79-1.32 2.71h-0.94c0.52-0.89 0.91-1.78 1.17-2.67 0.25-0.88 0.38-1.78 0.38-2.68s-0.13-1.79-0.38-2.67c-0.26-0.88-0.65-1.77-1.17-2.67zm-92.39 25.22v0.84h-0.37c-0.97 0-1.62-0.14-1.95-0.43s-0.5-0.86-0.5-1.73v-1.4c0-0.59-0.1-1-0.31-1.22-0.21-0.23-0.6-0.34-1.15-0.34h-0.36v-0.84h0.36c0.56 0 0.94-0.11 1.15-0.34 0.21-0.22 0.31-0.62 0.31-1.21v-1.4c0-0.87 0.17-1.44 0.5-1.73s0.98-0.43 1.95-0.43h0.37v0.84h-0.4c-0.55 0-0.91 0.08-1.08 0.26-0.17 0.17-0.25 0.53-0.25 1.08v1.45c0 0.62-0.09 1.06-0.27 1.34s-0.48 0.46-0.91 0.56c0.43 0.11 0.74 0.3 0.92 0.58 0.17 0.27 0.26 0.72 0.26 1.33v1.45c0 0.55 0.08 0.91 0.25 1.08 0.17 0.18 0.53 0.26 1.08 0.26h0.4zm10.64-7.48v1.02c-0.31-0.16-0.62-0.28-0.95-0.35-0.33-0.08-0.67-0.12-1.02-0.12-0.54 0-0.94 0.08-1.2 0.25-0.27 0.16-0.41 0.41-0.41 0.73 0 0.25 0.1 0.45 0.29 0.59 0.19 0.15 0.58 0.28 1.16 0.41l0.36 0.08c0.77 0.17 1.31 0.4 1.64 0.7 0.32 0.3 0.48 0.71 0.48 1.25 0 0.61-0.24 1.09-0.72 1.44-0.49 0.36-1.15 0.54-1.99 0.54-0.36 0-0.72-0.04-1.1-0.1-0.38-0.07-0.78-0.18-1.21-0.31v-1.12c0.4 0.21 0.79 0.37 1.18 0.47s0.77 0.16 1.15 0.16c0.51 0 0.9-0.09 1.17-0.27 0.28-0.17 0.41-0.41 0.41-0.73 0-0.29-0.1-0.52-0.29-0.67-0.2-0.16-0.63-0.31-1.3-0.46l-0.38-0.08c-0.66-0.14-1.15-0.36-1.44-0.65-0.3-0.29-0.45-0.69-0.45-1.2 0-0.62 0.22-1.09 0.66-1.43 0.43-0.33 1.06-0.5 1.86-0.5 0.4 0 0.77 0.03 1.13 0.08 0.35 0.06 0.67 0.15 0.97 0.27zm3.14-2.06v1.87h2.22v0.83h-2.22v3.57c0 0.53 0.07 0.87 0.22 1.03 0.14 0.15 0.44 0.23 0.89 0.23h1.11v0.9h-1.11c-0.83 0-1.4-0.16-1.72-0.47s-0.48-0.87-0.48-1.69v-3.57h-0.79v-0.83h0.79v-1.87h1.09zm6.63 5.13c-0.88 0-1.48 0.1-1.82 0.3-0.33 0.2-0.5 0.54-0.5 1.02 0 0.38 0.13 0.68 0.38 0.91 0.25 0.22 0.59 0.34 1.03 0.34 0.59 0 1.07-0.22 1.44-0.64 0.36-0.42 0.54-0.99 0.54-1.69v-0.24h-1.07zm2.15-0.45v3.75h-1.08v-1c-0.25 0.4-0.56 0.69-0.92 0.88-0.37 0.19-0.82 0.29-1.35 0.29-0.67 0-1.21-0.19-1.6-0.57-0.4-0.37-0.6-0.88-0.6-1.51 0-0.74 0.25-1.3 0.74-1.67 0.5-0.38 1.24-0.56 2.22-0.56h1.51v-0.11c0-0.5-0.17-0.88-0.49-1.15-0.33-0.27-0.79-0.41-1.38-0.41-0.37 0-0.74 0.05-1.09 0.14-0.36 0.09-0.7 0.22-1.03 0.4v-1c0.4-0.15 0.78-0.26 1.15-0.34 0.37-0.07 0.73-0.11 1.09-0.11 0.95 0 1.65 0.24 2.12 0.74 0.47 0.49 0.71 1.23 0.71 2.23zm6.95-2.56v1.01c-0.31-0.17-0.62-0.3-0.92-0.38-0.31-0.09-0.62-0.13-0.93-0.13-0.7 0-1.24 0.22-1.63 0.67-0.39 0.44-0.58 1.06-0.58 1.86s0.19 1.43 0.58 1.87 0.93 0.66 1.63 0.66c0.31 0 0.62-0.04 0.93-0.12 0.3-0.09 0.61-0.21 0.92-0.38v1c-0.31 0.14-0.62 0.24-0.94 0.31s-0.66 0.11-1.03 0.11c-0.99 0-1.77-0.31-2.35-0.93-0.59-0.63-0.88-1.46-0.88-2.52 0-1.07 0.3-1.91 0.89-2.52 0.58-0.62 1.39-0.92 2.41-0.92 0.33 0 0.66 0.03 0.98 0.1 0.31 0.07 0.62 0.17 0.92 0.31zm1.84-2.81h1.08v5.39l3.22-2.83h1.38l-3.48 3.07 3.63 3.49h-1.41l-3.34-3.21v3.21h-1.08v-9.12zm7.16 7.63h1.23v1.49h-1.23v-1.49zm4.89-6.29v3.29h1.49c0.55 0 0.98-0.14 1.28-0.43 0.3-0.28 0.45-0.69 0.45-1.22 0-0.52-0.15-0.92-0.45-1.21-0.3-0.28-0.73-0.43-1.28-0.43h-1.49zm-1.18-0.97h2.67c0.98 0 1.72 0.22 2.23 0.66 0.5 0.45 0.75 1.1 0.75 1.95 0 0.87-0.25 1.52-0.75 1.96-0.51 0.44-1.25 0.66-2.23 0.66h-1.49v3.52h-1.18v-8.75zm7.08 6.16v-3.97h1.08v3.93c0 0.62 0.12 1.08 0.37 1.39 0.24 0.31 0.6 0.47 1.09 0.47 0.58 0 1.04-0.19 1.38-0.56 0.33-0.37 0.5-0.87 0.5-1.51v-3.72h1.08v6.56h-1.08v-1.01c-0.26 0.4-0.56 0.69-0.91 0.89-0.34 0.19-0.75 0.29-1.2 0.29-0.76 0-1.33-0.24-1.72-0.71-0.39-0.46-0.59-1.15-0.59-2.05zm11.92-3.78v1.02c-0.31-0.16-0.63-0.28-0.95-0.35-0.33-0.08-0.67-0.12-1.02-0.12-0.54 0-0.94 0.08-1.21 0.25-0.26 0.16-0.4 0.41-0.4 0.73 0 0.25 0.1 0.45 0.29 0.59 0.19 0.15 0.58 0.28 1.15 0.41l0.37 0.08c0.77 0.17 1.31 0.4 1.63 0.7 0.33 0.3 0.49 0.71 0.49 1.25 0 0.61-0.24 1.09-0.73 1.44-0.48 0.36-1.14 0.54-1.99 0.54-0.35 0-0.71-0.04-1.09-0.1-0.38-0.07-0.79-0.18-1.21-0.31v-1.12c0.4 0.21 0.79 0.37 1.18 0.47s0.77 0.16 1.15 0.16c0.51 0 0.9-0.09 1.17-0.27 0.27-0.17 0.41-0.41 0.41-0.73 0-0.29-0.1-0.52-0.3-0.67-0.19-0.16-0.63-0.31-1.29-0.46l-0.38-0.08c-0.67-0.14-1.15-0.36-1.45-0.65-0.29-0.29-0.44-0.69-0.44-1.2 0-0.62 0.22-1.09 0.66-1.43 0.43-0.33 1.05-0.5 1.86-0.5 0.4 0 0.77 0.03 1.12 0.08 0.35 0.06 0.68 0.15 0.98 0.27zm7.53 2.41v3.96h-1.08v-3.93c0-0.62-0.12-1.08-0.37-1.39-0.24-0.31-0.6-0.47-1.09-0.47-0.58 0-1.04 0.19-1.37 0.56-0.34 0.37-0.51 0.88-0.51 1.52v3.71h-1.08v-9.12h1.08v3.57c0.26-0.39 0.56-0.68 0.91-0.88s0.76-0.29 1.21-0.29c0.76 0 1.33 0.23 1.72 0.7 0.38 0.46 0.58 1.15 0.58 2.06zm4.75-5.15c-0.53 0.9-0.91 1.79-1.17 2.67-0.25 0.88-0.38 1.77-0.38 2.67s0.13 1.8 0.38 2.68c0.26 0.89 0.65 1.78 1.17 2.67h-0.94c-0.59-0.92-1.02-1.82-1.32-2.71-0.29-0.88-0.43-1.76-0.43-2.64 0-0.87 0.14-1.75 0.43-2.63s0.73-1.79 1.32-2.71h0.94zm6.82 2.8v1.01c-0.31-0.17-0.61-0.3-0.92-0.38-0.31-0.09-0.62-0.13-0.93-0.13-0.7 0-1.24 0.22-1.63 0.67-0.38 0.44-0.58 1.06-0.58 1.86s0.2 1.43 0.58 1.87c0.39 0.44 0.93 0.66 1.63 0.66 0.31 0 0.62-0.04 0.93-0.12 0.31-0.09 0.61-0.21 0.92-0.38v1c-0.3 0.14-0.61 0.24-0.94 0.31-0.32 0.07-0.66 0.11-1.03 0.11-0.98 0-1.77-0.31-2.35-0.93-0.58-0.63-0.87-1.46-0.87-2.52 0-1.07 0.29-1.91 0.88-2.52 0.59-0.62 1.39-0.92 2.41-0.92 0.34 0 0.66 0.03 0.98 0.1 0.31 0.07 0.62 0.17 0.92 0.31zm4.43 0.5c-0.58 0-1.04 0.23-1.37 0.68-0.34 0.45-0.51 1.07-0.51 1.85 0 0.79 0.17 1.41 0.5 1.86 0.34 0.45 0.8 0.67 1.38 0.67 0.57 0 1.03-0.22 1.36-0.68 0.34-0.45 0.51-1.07 0.51-1.85 0-0.77-0.17-1.39-0.51-1.85-0.33-0.45-0.79-0.68-1.36-0.68zm0-0.91c0.93 0 1.67 0.3 2.21 0.91 0.53 0.61 0.8 1.45 0.8 2.53s-0.27 1.92-0.8 2.53c-0.54 0.61-1.28 0.92-2.21 0.92-0.94 0-1.68-0.31-2.21-0.92-0.54-0.61-0.8-1.45-0.8-2.53s0.26-1.92 0.8-2.53c0.53-0.61 1.27-0.91 2.21-0.91zm10.25 2.76v3.96h-1.08v-3.93c0-0.62-0.12-1.08-0.37-1.39-0.24-0.31-0.6-0.47-1.09-0.47-0.58 0-1.04 0.19-1.37 0.56-0.34 0.37-0.51 0.88-0.51 1.52v3.71h-1.08v-6.56h1.08v1.01c0.26-0.39 0.56-0.68 0.91-0.88s0.76-0.29 1.21-0.29c0.76 0 1.33 0.23 1.72 0.7 0.38 0.46 0.58 1.15 0.58 2.06zm3.22-4.47v1.87h2.22v0.83h-2.22v3.57c0 0.53 0.08 0.87 0.22 1.03 0.15 0.15 0.45 0.23 0.9 0.23h1.1v0.9h-1.1c-0.83 0-1.41-0.16-1.73-0.47-0.31-0.31-0.47-0.87-0.47-1.69v-3.57h-0.79v-0.83h0.79v-1.87h1.08zm7.45 2.87c-0.12-0.07-0.25-0.12-0.39-0.15-0.15-0.04-0.3-0.05-0.48-0.05-0.61 0-1.07 0.2-1.4 0.59-0.33 0.4-0.49 0.97-0.49 1.71v3.46h-1.08v-6.56h1.08v1.01c0.23-0.39 0.52-0.69 0.89-0.88 0.36-0.2 0.8-0.29 1.32-0.29 0.07 0 0.16 0 0.25 0.01s0.19 0.03 0.3 0.05v1.1zm3.69-0.25c-0.58 0-1.04 0.23-1.37 0.68-0.34 0.45-0.51 1.07-0.51 1.85 0 0.79 0.17 1.41 0.5 1.86 0.34 0.45 0.79 0.67 1.38 0.67 0.57 0 1.03-0.22 1.36-0.68 0.34-0.45 0.51-1.07 0.51-1.85 0-0.77-0.17-1.39-0.51-1.85-0.33-0.45-0.79-0.68-1.36-0.68zm0-0.91c0.93 0 1.67 0.3 2.21 0.91 0.53 0.61 0.8 1.45 0.8 2.53s-0.27 1.92-0.8 2.53c-0.54 0.61-1.28 0.92-2.21 0.92-0.94 0-1.68-0.31-2.22-0.92-0.53-0.61-0.8-1.45-0.8-2.53s0.27-1.92 0.8-2.53c0.54-0.61 1.28-0.91 2.22-0.91zm4.79-2.4h1.08v9.12h-1.08v-9.12zm3.16 0.01h0.94c0.58 0.92 1.02 1.83 1.31 2.71s0.44 1.76 0.44 2.63c0 0.88-0.15 1.76-0.44 2.64-0.29 0.89-0.73 1.79-1.31 2.71h-0.94c0.52-0.89 0.91-1.78 1.16-2.67 0.26-0.88 0.38-1.78 0.38-2.68s-0.12-1.79-0.38-2.67c-0.25-0.88-0.64-1.77-1.16-2.67zm5.13 2.9h1.24v1.49h-1.24v-1.49zm0 4.72h1.24v1.01l-0.96 1.87h-0.76l0.48-1.87v-1.01zm7.97 2.6h0.41c0.55 0 0.9-0.08 1.07-0.25 0.16-0.17 0.25-0.53 0.25-1.09v-1.45c0-0.61 0.09-1.06 0.26-1.33 0.18-0.28 0.48-0.47 0.92-0.58-0.44-0.1-0.74-0.28-0.92-0.56-0.17-0.28-0.26-0.72-0.26-1.34v-1.45c0-0.55-0.09-0.92-0.25-1.09-0.17-0.17-0.52-0.25-1.07-0.25h-0.41v-0.84h0.37c0.97 0 1.62 0.14 1.95 0.43 0.32 0.29 0.49 0.86 0.49 1.73v1.4c0 0.59 0.1 0.99 0.31 1.21 0.21 0.23 0.6 0.34 1.15 0.34h0.36v0.84h-0.36c-0.55 0-0.94 0.11-1.15 0.34-0.21 0.22-0.31 0.63-0.31 1.22v1.4c0 0.87-0.17 1.44-0.49 1.73-0.33 0.29-0.98 0.43-1.95 0.43h-0.37v-0.84zm-135.05 15h0.41c0.55 0 0.91-0.08 1.07-0.25 0.17-0.17 0.25-0.53 0.25-1.09v-1.45c0-0.61 0.09-1.06 0.26-1.33 0.18-0.28 0.49-0.47 0.92-0.58-0.43-0.1-0.74-0.28-0.92-0.56-0.17-0.28-0.26-0.72-0.26-1.34v-1.45c0-0.55-0.08-0.92-0.25-1.09-0.16-0.17-0.52-0.25-1.07-0.25h-0.41v-0.84h0.37c0.97 0 1.62 0.14 1.95 0.43s0.49 0.86 0.49 1.73v1.4c0 0.59 0.1 0.99 0.32 1.21 0.21 0.23 0.59 0.34 1.14 0.34h0.37v0.84h-0.37c-0.55 0-0.93 0.11-1.14 0.34-0.22 0.22-0.32 0.63-0.32 1.22v1.4c0 0.87-0.16 1.44-0.49 1.73s-0.98 0.43-1.95 0.43h-0.37v-0.84zm4.92 5.43v1.15c-0.44-0.21-0.87-0.37-1.27-0.48-0.4-0.1-0.78-0.16-1.15-0.16-0.65 0-1.14 0.13-1.49 0.38s-0.53 0.6-0.53 1.06c0 0.39 0.12 0.68 0.35 0.88s0.67 0.36 1.32 0.48l0.72 0.14c0.88 0.17 1.53 0.47 1.95 0.89 0.42 0.43 0.63 0.99 0.63 1.7 0 0.85-0.28 1.49-0.85 1.93s-1.4 0.66-2.5 0.66c-0.41 0-0.85-0.05-1.32-0.14-0.47-0.1-0.95-0.24-1.45-0.42v-1.22c0.48 0.27 0.95 0.47 1.41 0.61s0.91 0.21 1.36 0.21c0.68 0 1.2-0.14 1.56-0.4 0.37-0.27 0.56-0.65 0.56-1.14 0-0.43-0.14-0.76-0.4-1.01-0.26-0.24-0.7-0.42-1.3-0.54l-0.72-0.14c-0.88-0.18-1.52-0.45-1.91-0.83-0.4-0.37-0.6-0.89-0.6-1.56 0-0.78 0.28-1.39 0.82-1.83 0.55-0.45 1.3-0.67 2.25-0.67 0.41 0 0.83 0.04 1.26 0.11 0.42 0.08 0.86 0.19 1.3 0.34zm3.4 0.03v1.87h2.22v0.83h-2.22v3.57c0 0.53 0.07 0.87 0.22 1.03 0.14 0.15 0.44 0.23 0.89 0.23h1.11v0.9h-1.11c-0.83 0-1.41-0.16-1.72-0.47-0.32-0.31-0.48-0.87-0.48-1.69v-3.57h-0.79v-0.83h0.79v-1.87h1.09zm6.62 5.13c-0.87 0-1.47 0.1-1.81 0.3-0.33 0.2-0.5 0.54-0.5 1.02 0 0.38 0.13 0.68 0.38 0.91 0.25 0.22 0.59 0.34 1.03 0.34 0.59 0 1.07-0.22 1.43-0.64 0.37-0.42 0.55-0.99 0.55-1.69v-0.24h-1.08zm2.15-0.45v3.75h-1.07v-1c-0.25 0.4-0.56 0.69-0.92 0.88-0.37 0.19-0.82 0.29-1.35 0.29-0.67 0-1.21-0.19-1.6-0.57-0.4-0.37-0.6-0.88-0.6-1.51 0-0.74 0.25-1.3 0.74-1.67 0.5-0.38 1.23-0.56 2.21-0.56h1.52v-0.11c0-0.5-0.17-0.88-0.49-1.15-0.33-0.27-0.79-0.41-1.38-0.41-0.37 0-0.74 0.05-1.09 0.14-0.36 0.09-0.7 0.22-1.03 0.4v-1c0.4-0.15 0.78-0.26 1.15-0.34 0.37-0.07 0.73-0.11 1.08-0.11 0.95 0 1.66 0.24 2.13 0.74 0.47 0.49 0.7 1.23 0.7 2.23zm6.95-2.56v1.01c-0.3-0.17-0.61-0.3-0.91-0.38-0.31-0.09-0.62-0.13-0.93-0.13-0.7 0-1.24 0.22-1.63 0.67-0.39 0.44-0.58 1.06-0.58 1.86s0.19 1.43 0.58 1.87 0.93 0.66 1.63 0.66c0.31 0 0.62-0.04 0.93-0.12 0.3-0.09 0.61-0.21 0.91-0.38v1c-0.3 0.14-0.61 0.24-0.93 0.31s-0.67 0.11-1.03 0.11c-0.99 0-1.77-0.31-2.35-0.93-0.59-0.63-0.88-1.46-0.88-2.52 0-1.07 0.3-1.91 0.88-2.52 0.59-0.62 1.4-0.92 2.42-0.92 0.33 0 0.66 0.03 0.97 0.1 0.32 0.07 0.63 0.17 0.92 0.31zm1.85-2.81h1.08v5.39l3.22-2.83h1.38l-3.48 3.07 3.62 3.49h-1.4l-3.34-3.21v3.21h-1.08v-9.12zm14.65 3.21l-6.04 2.15 6.04 2.14v1.07l-7.51-2.73v-0.97l7.51-2.72v1.06zm9-2.17v1.25c-0.39-0.37-0.82-0.65-1.27-0.83s-0.93-0.28-1.44-0.28c-1 0-1.77 0.31-2.3 0.92s-0.79 1.5-0.79 2.65 0.26 2.04 0.79 2.65 1.3 0.92 2.3 0.92c0.51 0 0.99-0.1 1.44-0.28s0.88-0.46 1.27-0.83v1.23c-0.41 0.29-0.85 0.5-1.31 0.64s-0.95 0.21-1.47 0.21c-1.32 0-2.37-0.41-3.13-1.22s-1.14-1.92-1.14-3.32 0.38-2.51 1.14-3.32 1.81-1.22 3.13-1.22c0.52 0 1.02 0.07 1.48 0.21s0.9 0.35 1.3 0.62zm4.34 2.27c-0.58 0-1.04 0.23-1.37 0.68-0.34 0.45-0.51 1.07-0.51 1.85 0 0.79 0.17 1.41 0.51 1.86 0.33 0.45 0.79 0.67 1.37 0.67 0.57 0 1.03-0.22 1.36-0.68 0.34-0.45 0.51-1.07 0.51-1.85 0-0.77-0.17-1.39-0.51-1.85-0.33-0.45-0.79-0.68-1.36-0.68zm0-0.91c0.94 0 1.67 0.3 2.21 0.91 0.53 0.61 0.8 1.45 0.8 2.53s-0.27 1.92-0.8 2.53c-0.54 0.61-1.27 0.92-2.21 0.92s-1.68-0.31-2.21-0.92c-0.54-0.61-0.8-1.45-0.8-2.53s0.26-1.92 0.8-2.53c0.53-0.61 1.27-0.91 2.21-0.91zm10.25 2.76v3.96h-1.08v-3.93c0-0.62-0.12-1.08-0.36-1.39-0.25-0.31-0.61-0.47-1.09-0.47-0.59 0-1.04 0.19-1.38 0.56s-0.5 0.88-0.5 1.52v3.71h-1.09v-6.56h1.09v1.01c0.25-0.39 0.56-0.68 0.91-0.88s0.75-0.29 1.21-0.29c0.75 0 1.32 0.23 1.71 0.7 0.38 0.46 0.58 1.15 0.58 2.06zm3.23-4.47v1.87h2.22v0.83h-2.22v3.57c0 0.53 0.07 0.87 0.22 1.03 0.14 0.15 0.44 0.23 0.89 0.23h1.11v0.9h-1.11c-0.83 0-1.41-0.16-1.72-0.47-0.32-0.31-0.48-0.87-0.48-1.69v-3.57h-0.79v-0.83h0.79v-1.87h1.09zm7.44 2.87c-0.12-0.07-0.25-0.12-0.39-0.15-0.14-0.04-0.3-0.05-0.47-0.05-0.61 0-1.08 0.2-1.41 0.59-0.32 0.4-0.49 0.97-0.49 1.71v3.46h-1.08v-6.56h1.08v1.01c0.23-0.39 0.52-0.69 0.89-0.88 0.36-0.2 0.8-0.29 1.32-0.29 0.08 0 0.16 0 0.25 0.01s0.19 0.03 0.3 0.05v1.1zm3.69-0.25c-0.58 0-1.04 0.23-1.37 0.68-0.34 0.45-0.51 1.07-0.51 1.85 0 0.79 0.17 1.41 0.5 1.86 0.34 0.45 0.8 0.67 1.38 0.67 0.57 0 1.03-0.22 1.36-0.68 0.34-0.45 0.51-1.07 0.51-1.85 0-0.77-0.17-1.39-0.51-1.85-0.33-0.45-0.79-0.68-1.36-0.68zm0-0.91c0.94 0 1.67 0.3 2.21 0.91 0.53 0.61 0.8 1.45 0.8 2.53s-0.27 1.92-0.8 2.53c-0.54 0.61-1.27 0.92-2.21 0.92s-1.68-0.31-2.21-0.92c-0.54-0.61-0.8-1.45-0.8-2.53s0.26-1.92 0.8-2.53c0.53-0.61 1.27-0.91 2.21-0.91zm4.79-2.4h1.08v9.12h-1.08v-9.12zm3.47 3.21v-1.06l7.51 2.72v0.97l-7.51 2.73v-1.07l6.04-2.14-6.04-2.15zm17.92-0.46v1.02c-0.31-0.16-0.62-0.28-0.95-0.35-0.33-0.08-0.67-0.12-1.02-0.12-0.54 0-0.94 0.08-1.2 0.25-0.27 0.16-0.41 0.41-0.41 0.73 0 0.25 0.1 0.45 0.29 0.59 0.19 0.15 0.58 0.28 1.16 0.41l0.36 0.08c0.77 0.17 1.31 0.4 1.64 0.7 0.32 0.3 0.48 0.71 0.48 1.25 0 0.61-0.24 1.09-0.72 1.44-0.49 0.36-1.15 0.54-1.99 0.54-0.35 0-0.72-0.04-1.1-0.1-0.38-0.07-0.78-0.18-1.21-0.31v-1.12c0.4 0.21 0.8 0.37 1.18 0.47 0.39 0.1 0.77 0.16 1.15 0.16 0.51 0 0.9-0.09 1.17-0.27 0.28-0.17 0.41-0.41 0.41-0.73 0-0.29-0.1-0.52-0.29-0.67-0.2-0.16-0.63-0.31-1.3-0.46l-0.38-0.08c-0.66-0.14-1.15-0.36-1.44-0.65-0.3-0.29-0.45-0.69-0.45-1.2 0-0.62 0.22-1.09 0.66-1.43 0.44-0.33 1.06-0.5 1.86-0.5 0.4 0 0.77 0.03 1.13 0.08 0.35 0.06 0.67 0.15 0.97 0.27zm3.14-2.06v1.87h2.22v0.83h-2.22v3.57c0 0.53 0.07 0.87 0.22 1.03 0.15 0.15 0.44 0.23 0.89 0.23h1.11v0.9h-1.11c-0.83 0-1.4-0.16-1.72-0.47s-0.47-0.87-0.47-1.69v-3.57h-0.8v-0.83h0.8v-1.87h1.08zm6.63 5.13c-0.88 0-1.48 0.1-1.81 0.3-0.34 0.2-0.51 0.54-0.51 1.02 0 0.38 0.13 0.68 0.38 0.91 0.25 0.22 0.59 0.34 1.03 0.34 0.6 0 1.08-0.22 1.44-0.64s0.54-0.99 0.54-1.69v-0.24h-1.07zm2.15-0.45v3.75h-1.08v-1c-0.25 0.4-0.55 0.69-0.92 0.88s-0.82 0.29-1.35 0.29c-0.67 0-1.21-0.19-1.6-0.57-0.4-0.37-0.6-0.88-0.6-1.51 0-0.74 0.25-1.3 0.74-1.67 0.5-0.38 1.24-0.56 2.22-0.56h1.51v-0.11c0-0.5-0.16-0.88-0.49-1.15s-0.79-0.41-1.37-0.41c-0.38 0-0.75 0.05-1.1 0.14-0.36 0.09-0.7 0.22-1.03 0.4v-1c0.4-0.15 0.78-0.26 1.15-0.34 0.37-0.07 0.73-0.11 1.09-0.11 0.95 0 1.65 0.24 2.12 0.74 0.47 0.49 0.71 1.23 0.71 2.23zm6.95-2.56v1.01c-0.31-0.17-0.61-0.3-0.92-0.38-0.31-0.09-0.62-0.13-0.93-0.13-0.7 0-1.24 0.22-1.63 0.67-0.39 0.44-0.58 1.06-0.58 1.86s0.19 1.43 0.58 1.87 0.93 0.66 1.63 0.66c0.31 0 0.62-0.04 0.93-0.12 0.31-0.09 0.61-0.21 0.92-0.38v1c-0.31 0.14-0.62 0.24-0.94 0.31s-0.66 0.11-1.03 0.11c-0.99 0-1.77-0.31-2.35-0.93-0.58-0.63-0.88-1.46-0.88-2.52 0-1.07 0.3-1.91 0.89-2.52 0.58-0.62 1.39-0.92 2.41-0.92 0.34 0 0.66 0.03 0.98 0.1 0.31 0.07 0.62 0.17 0.92 0.31zm1.84-2.81h1.09v5.39l3.21-2.83h1.38l-3.48 3.07 3.63 3.49h-1.41l-3.33-3.21v3.21h-1.09v-9.12zm10.96 3.67h7.52v0.98h-7.52v-0.98zm0 2.39h7.52v1h-7.52v-1zm19.19-0.9v3.96h-1.07v-3.93c0-0.62-0.13-1.08-0.37-1.39s-0.6-0.47-1.09-0.47c-0.58 0-1.04 0.19-1.37 0.56-0.34 0.37-0.51 0.88-0.51 1.52v3.71h-1.08v-6.56h1.08v1.01c0.26-0.39 0.56-0.68 0.91-0.88s0.76-0.29 1.21-0.29c0.76 0 1.33 0.23 1.71 0.7 0.39 0.46 0.58 1.15 0.58 2.06zm7.78 0.41v0.52h-4.96c0.05 0.75 0.27 1.31 0.67 1.7s0.96 0.58 1.68 0.58c0.41 0 0.81-0.05 1.2-0.15s0.77-0.25 1.16-0.46v1.02c-0.39 0.17-0.79 0.29-1.19 0.38-0.41 0.08-0.82 0.13-1.24 0.13-1.05 0-1.87-0.31-2.49-0.92-0.61-0.61-0.91-1.43-0.91-2.47 0-1.07 0.29-1.93 0.87-2.56s1.36-0.94 2.34-0.94c0.89 0 1.58 0.28 2.1 0.85 0.51 0.57 0.77 1.34 0.77 2.32zm-1.08-0.32c-0.01-0.59-0.17-1.06-0.49-1.41-0.33-0.35-0.75-0.53-1.28-0.53-0.61 0-1.09 0.17-1.45 0.51s-0.57 0.82-0.62 1.44l3.84-0.01zm2.22-2.69h1.08l1.35 5.12 1.34-5.12h1.27l1.35 5.12 1.34-5.12h1.08l-1.72 6.56h-1.27l-1.41-5.38-1.42 5.38h-1.27l-1.72-6.56zm-159.53 13.1v1.15c-0.44-0.21-0.87-0.37-1.27-0.48-0.4-0.1-0.78-0.16-1.15-0.16-0.65 0-1.14 0.13-1.49 0.38s-0.53 0.6-0.53 1.06c0 0.39 0.12 0.68 0.35 0.88s0.67 0.36 1.32 0.48l0.72 0.14c0.88 0.17 1.53 0.47 1.95 0.89 0.42 0.43 0.63 0.99 0.63 1.7 0 0.85-0.28 1.49-0.85 1.93s-1.4 0.66-2.5 0.66c-0.41 0-0.85-0.05-1.32-0.14-0.47-0.1-0.95-0.24-1.45-0.42v-1.22c0.48 0.27 0.95 0.47 1.41 0.61s0.91 0.21 1.36 0.21c0.68 0 1.2-0.14 1.56-0.4 0.37-0.27 0.56-0.65 0.56-1.14 0-0.43-0.14-0.76-0.4-1.01-0.26-0.24-0.7-0.42-1.3-0.54l-0.72-0.14c-0.88-0.18-1.52-0.45-1.91-0.83-0.4-0.37-0.6-0.89-0.6-1.56 0-0.78 0.28-1.39 0.82-1.83 0.55-0.45 1.3-0.67 2.25-0.67 0.41 0 0.83 0.04 1.26 0.11 0.42 0.08 0.86 0.19 1.3 0.34zm3.4 0.03v1.87h2.22v0.83h-2.22v3.57c0 0.53 0.07 0.87 0.22 1.03 0.14 0.15 0.44 0.23 0.89 0.23h1.11v0.9h-1.11c-0.83 0-1.41-0.16-1.72-0.47-0.32-0.31-0.48-0.87-0.48-1.69v-3.57h-0.79v-0.83h0.79v-1.87h1.09zm6.62 5.13c-0.87 0-1.47 0.1-1.81 0.3-0.33 0.2-0.5 0.54-0.5 1.02 0 0.38 0.13 0.68 0.38 0.91 0.25 0.22 0.59 0.34 1.03 0.34 0.59 0 1.07-0.22 1.43-0.64 0.37-0.42 0.55-0.99 0.55-1.69v-0.24h-1.08zm2.15-0.45v3.75h-1.07v-1c-0.25 0.4-0.56 0.69-0.92 0.88-0.37 0.19-0.82 0.29-1.35 0.29-0.67 0-1.21-0.19-1.6-0.57-0.4-0.37-0.6-0.88-0.6-1.51 0-0.74 0.25-1.3 0.74-1.67 0.5-0.38 1.23-0.56 2.21-0.56h1.52v-0.11c0-0.5-0.17-0.88-0.49-1.15-0.33-0.27-0.79-0.41-1.38-0.41-0.37 0-0.74 0.05-1.09 0.14-0.36 0.09-0.7 0.22-1.03 0.4v-1c0.4-0.15 0.78-0.26 1.15-0.34 0.37-0.07 0.73-0.11 1.08-0.11 0.95 0 1.66 0.24 2.13 0.74 0.47 0.49 0.7 1.23 0.7 2.23zm6.95-2.56v1.01c-0.3-0.17-0.61-0.3-0.91-0.38-0.31-0.09-0.62-0.13-0.93-0.13-0.7 0-1.24 0.22-1.63 0.67-0.39 0.44-0.58 1.06-0.58 1.86s0.19 1.43 0.58 1.87 0.93 0.66 1.63 0.66c0.31 0 0.62-0.04 0.93-0.12 0.3-0.09 0.61-0.21 0.91-0.38v1c-0.3 0.14-0.61 0.24-0.93 0.31s-0.67 0.11-1.03 0.11c-0.99 0-1.77-0.31-2.35-0.93-0.59-0.63-0.88-1.46-0.88-2.52 0-1.07 0.3-1.91 0.88-2.52 0.59-0.62 1.4-0.92 2.42-0.92 0.33 0 0.66 0.03 0.97 0.1 0.32 0.07 0.63 0.17 0.92 0.31zm1.85-2.81h1.08v5.39l3.22-2.83h1.38l-3.48 3.07 3.62 3.49h-1.4l-3.34-3.21v3.21h-1.08v-9.12zm14.65 3.21l-6.04 2.15 6.04 2.14v1.07l-7.51-2.73v-0.97l7.51-2.72v1.06zm9-2.17v1.25c-0.39-0.37-0.82-0.65-1.27-0.83s-0.93-0.28-1.44-0.28c-1 0-1.77 0.31-2.3 0.92s-0.79 1.5-0.79 2.65 0.26 2.04 0.79 2.65 1.3 0.92 2.3 0.92c0.51 0 0.99-0.1 1.44-0.28s0.88-0.46 1.27-0.83v1.23c-0.41 0.29-0.85 0.5-1.31 0.64s-0.95 0.21-1.47 0.21c-1.32 0-2.37-0.41-3.13-1.22s-1.14-1.92-1.14-3.32 0.38-2.51 1.14-3.32 1.81-1.22 3.13-1.22c0.52 0 1.02 0.07 1.48 0.21s0.9 0.35 1.3 0.62zm4.34 2.27c-0.58 0-1.04 0.23-1.37 0.68-0.34 0.45-0.51 1.07-0.51 1.85 0 0.79 0.17 1.41 0.51 1.86 0.33 0.45 0.79 0.67 1.37 0.67 0.57 0 1.03-0.22 1.36-0.68 0.34-0.45 0.51-1.07 0.51-1.85 0-0.77-0.17-1.39-0.51-1.85-0.33-0.45-0.79-0.68-1.36-0.68zm0-0.91c0.94 0 1.67 0.3 2.21 0.91 0.53 0.61 0.8 1.45 0.8 2.53s-0.27 1.92-0.8 2.53c-0.54 0.61-1.27 0.92-2.21 0.92s-1.68-0.31-2.21-0.92c-0.54-0.61-0.8-1.45-0.8-2.53s0.26-1.92 0.8-2.53c0.53-0.61 1.27-0.91 2.21-0.91zm10.25 2.76v3.96h-1.08v-3.93c0-0.62-0.12-1.08-0.36-1.39-0.25-0.31-0.61-0.47-1.09-0.47-0.59 0-1.04 0.19-1.38 0.56s-0.5 0.88-0.5 1.52v3.71h-1.09v-6.56h1.09v1.01c0.25-0.39 0.56-0.68 0.91-0.88s0.75-0.29 1.21-0.29c0.75 0 1.32 0.23 1.71 0.7 0.38 0.46 0.58 1.15 0.58 2.06zm3.23-4.47v1.87h2.22v0.83h-2.22v3.57c0 0.53 0.07 0.87 0.22 1.03 0.14 0.15 0.44 0.23 0.89 0.23h1.11v0.9h-1.11c-0.83 0-1.41-0.16-1.72-0.47-0.32-0.31-0.48-0.87-0.48-1.69v-3.57h-0.79v-0.83h0.79v-1.87h1.09zm7.44 2.87c-0.12-0.07-0.25-0.12-0.39-0.15-0.14-0.04-0.3-0.05-0.47-0.05-0.61 0-1.08 0.2-1.41 0.59-0.32 0.4-0.49 0.97-0.49 1.71v3.46h-1.08v-6.56h1.08v1.01c0.23-0.39 0.52-0.69 0.89-0.88 0.36-0.2 0.8-0.29 1.32-0.29 0.08 0 0.16 0 0.25 0.01s0.19 0.03 0.3 0.05v1.1zm3.69-0.25c-0.58 0-1.04 0.23-1.37 0.68-0.34 0.45-0.51 1.07-0.51 1.85 0 0.79 0.17 1.41 0.5 1.86 0.34 0.45 0.8 0.67 1.38 0.67 0.57 0 1.03-0.22 1.36-0.68 0.34-0.45 0.51-1.07 0.51-1.85 0-0.77-0.17-1.39-0.51-1.85-0.33-0.45-0.79-0.68-1.36-0.68zm0-0.91c0.94 0 1.67 0.3 2.21 0.91 0.53 0.61 0.8 1.45 0.8 2.53s-0.27 1.92-0.8 2.53c-0.54 0.61-1.27 0.92-2.21 0.92s-1.68-0.31-2.21-0.92c-0.54-0.61-0.8-1.45-0.8-2.53s0.26-1.92 0.8-2.53c0.53-0.61 1.27-0.91 2.21-0.91zm4.79-2.4h1.08v9.12h-1.08v-9.12zm3.47 3.21v-1.06l7.51 2.72v0.97l-7.51 2.73v-1.07l6.04-2.14-6.04-2.15zm12.5-3.2c-0.52 0.9-0.91 1.79-1.16 2.67-0.26 0.88-0.38 1.77-0.38 2.67s0.13 1.8 0.38 2.68c0.26 0.89 0.64 1.78 1.16 2.67h-0.93c-0.59-0.92-1.03-1.82-1.32-2.71-0.29-0.88-0.44-1.76-0.44-2.64 0-0.87 0.15-1.75 0.44-2.63s0.73-1.79 1.32-2.71h0.93zm1.93 0h0.94c0.59 0.92 1.02 1.83 1.32 2.71 0.29 0.88 0.43 1.76 0.43 2.63 0 0.88-0.14 1.76-0.43 2.64-0.3 0.89-0.73 1.79-1.32 2.71h-0.94c0.52-0.89 0.91-1.78 1.17-2.67 0.25-0.88 0.38-1.78 0.38-2.68s-0.13-1.79-0.38-2.67c-0.26-0.88-0.65-1.77-1.17-2.67zm5.14 2.9h1.23v1.49h-1.23v-1.49zm0 4.72h1.23v1.01l-0.96 1.87h-0.76l0.49-1.87v-1.01z" class="bYKvHzWs_1"></path>
    <path id="path2200" sodipodi:rx="107.85714" sodipodi:ry="129.64285" style="fill:url(#radialGradient3203)" sodipodi:type="arc" d="m523.57 382.72a107.86 129.64 0 1 1 -215.71 0 107.86 129.64 0 1 1 215.71 0z" transform="matrix(.98127 0 0 .92208 -40.85 17.418)" sodipodi:cy="382.71933" sodipodi:cx="415.71429" class="bYKvHzWs_2"></path>
    <g id="g3205" transform="matrix(1.2436 0 0 1.3408 -81.451 -134.26)">
      <path id="path2212" sodipodi:nodetypes="ccccc" style="fill-rule:evenodd;fill-opacity:.75;stroke:#000000;stroke-width:.77444px;fill:#dee3db" d="m346.56 410.2c2.98-0.57 29.55-1.73 34.9-0.01 2.45 1.62 10.03 14.33 9.48 16.36-3.24 1.05-51 1.69-54.89 0.19-1.34-2.78 7.91-14.72 10.51-16.54z" class="bYKvHzWs_3"></path>
      <path id="path2214" sodipodi:rx="2.0203052" sodipodi:ry="2.2728431" style="fill:#28170b" sodipodi:type="arc" d="m354.31 416.98a2.0203 2.2728 0 1 1 -4.04 0 2.0203 2.2728 0 1 1 4.04 0z" transform="translate(0 .63135)" sodipodi:cy="416.97623" sodipodi:cx="352.29071" class="bYKvHzWs_4"></path>
      <path id="path2216" sodipodi:rx="2.0203052" sodipodi:ry="2.2728431" style="fill:#28170b" sodipodi:type="arc" d="m354.31 416.98a2.0203 2.2728 0 1 1 -4.04 0 2.0203 2.2728 0 1 1 4.04 0z" transform="translate(8.0812 .63135)" sodipodi:cy="416.97623" sodipodi:cx="352.29071" class="bYKvHzWs_5"></path>
      <path id="path2218" sodipodi:rx="2.0203052" sodipodi:ry="2.2728431" style="fill:#28170b" sodipodi:type="arc" d="m354.31 416.98a2.0203 2.2728 0 1 1 -4.04 0 2.0203 2.2728 0 1 1 4.04 0z" transform="translate(16.162 .63135)" sodipodi:cy="416.97623" sodipodi:cx="352.29071" class="bYKvHzWs_6"></path>
      <path id="path2220" sodipodi:rx="2.0203052" sodipodi:ry="2.2728431" style="fill:#28170b" sodipodi:type="arc" d="m354.31 416.98a2.0203 2.2728 0 1 1 -4.04 0 2.0203 2.2728 0 1 1 4.04 0z" transform="translate(24.244 .63135)" sodipodi:cy="416.97623" sodipodi:cx="352.29071" class="bYKvHzWs_7"></path>
    </g>
    <path id="path3212" style="stroke:#00273e;stroke-linecap:round;stroke-width:6;fill:none" d="m355.11 426.97c0.04 1.68-0.88 3.23-1.8 4.7-1.19 1.88-2.89 4.02-4.65 5.4-1.92 1.52-4.53 1.97-6.18 3.59-1.19 1.17-2.49 2.67-3.37 4.1-0.62 1.03-0.75 2.56-0.75 3.77 0 1.48 0.2 2.82 0.2 4.32 0 1.79 0.2 3.6-0.46 5.2-0.84 2.04-0.79 4.17-1.8 6.08-1.2 2.26-2.57 3.81-4.41 5.58-1.75 1.67-3.41 3.22-4.82 5.2-1.14 1.59-1.25 3.65-1.25 5.67 0 2.73-0.19 5.74-0.55 8.42-0.38 2.77-0.18 4-1.72 6.46-1.74 2.78-3.91 4.81-5.89 7.38-1.37 1.78-3.11 5.5-3.51 7.66s-0.58 3.47-0.58 5.71c0 1.42-0.55 1.9-0.55 3.19 0 1.11-0.79 1.96-1.43 2.63-0.42 0.45-0.56 2-0.75 2.44-0.06 0.13 0 0.38 0 0.53" class="bYKvHzWs_8"></path>
    <path id="path3214" style="stroke:#a80000;stroke-linecap:round;stroke-width:6;fill:none" d="m365.42 427.9c-0.47 1.07-2.96 3.03-3.92 3.77-1.35 1.05-2.4 2.94-3.63 4.25-1.55 1.64-2.19 4.59-3.25 6.58-1.26 2.36-1.8 3.78-2.2 6.35-0.41 2.58-0.77 3.69-2.21 5.96-0.77 1.22-1.79 2.11-2.61 3.14-0.99 1.24-1.25 2.68-1.25 4.32 0 1.3-0.5 3.42-0.93 4.62-0.53 1.48-1.44 2.41-2.38 3.67-0.74 0.99-1.22 2.09-2.03 3.11-0.51 0.65-1.07 1.79-1.69 2.54-0.68 0.84-1.76 1.84-2.38 2.31-0.08 0.07-0.13 0.17-0.2 0.25-0.68 0.84-1.52 0.93-2.21 1.71-0.64 0.74-0.93 2.29-1.36 2.87-0.67 0.89-1.1 1.75-2.09 2.56-0.81 0.66-1.65 1.24-2.21 1.76-0.89 0.82-1.33 1.37-1.91 2.16-0.3 0.4-0.49 1.41-0.7 1.81" class="bYKvHzWs_9"></path>
    <path id="path3216" style="stroke:#2ca800;stroke-linecap:round;stroke-width:6;fill:none" d="m375.53 427.5c-0.61 0.83-0.82 2.88-1.28 3.87-0.89 1.94-1.49 4.1-2.52 5.93-1.27 2.26-2.79 4.16-4.15 6.33-1.24 1.96-2.32 4.12-3.37 6.18-1.09 2.14-2.56 3.83-3.86 5.83-1.26 1.94-1.87 2.87-2.21 5.15-0.25 1.7-0.35 3.37-0.35 5.13 0 1.46-0.15 3.21-0.34 4.62-0.16 1.15-1.42 2.4-1.89 3.41-0.52 1.11-1.78 2.32-2.53 3.04-0.7 0.69-0.7 1.64-1.1 2.64-0.3 0.76-0.29 1.77-0.41 2.46-0.21 1.27-0.34 2.53-0.52 3.85-0.3 2.22-1 4.07-2.12 6.05-0.83 1.48-1.05 3.25-1.57 4.8-0.65 1.97-1.21 3.89-1.82 5.85-0.28 0.89-0.18 1.99-0.18 2.97 0 1.31-0.32 2.29-1.1 3.26-0.94 1.18-1.74 2.56-2.24 3.82-0.45 1.16-0.58 1.56-0.58 2.99 0 0.87-0.2 1.9-0.2 2.84 0 0.83-0.43 1.24-0.73 1.71-0.21 0.33-0.33 0.72-0.55 1.05" class="bYKvHzWs_10"></path>
    <path id="path3218" style="stroke:#3cb9ff;stroke-linecap:round;stroke-width:6;fill:none" d="m385.79 428.29c-1.15 1.62-2.33 3.33-3.37 5.08-1.68 2.81-3.73 6.19-2.58 9.33 0.92 2.52 1.2 5.06 0.03 7.55-0.72 1.52-1.43 2.9-2.09 4.34-0.24 0.53 0.16 1.15 0.39 1.69 0.02 0.07-0.12 0.09-0.18 0.14" class="bYKvHzWs_11"></path>
    <path id="path3220" sodipodi:nodetypes="cccscc" style="fill-rule:evenodd;stroke:#000000;stroke-width:1px;fill:url(#linearGradient4199)" d="m339.66 258.13c16.67 9.09 49.25-0.25 49.25-0.25l-9.09-26.52s-12.19 4.48-17.93 4.55c-5.75 0.06-10.86-3.79-10.86-3.79l-11.37 26.01z" class="bYKvHzWs_12"></path>
    <path id="path4221" sodipodi:nodetypes="ccccscc" style="fill-rule:evenodd;stroke:#000000;stroke-width:1.3565px;fill:url(#linearGradient4238)" d="m351.35 231.79c-2.03-7.87 6.13-33.24-3.16-56.97-4.92-13.38-13.45-36.19-21.46-55.46 5.15-2.19 21.35 0.47 28.4-0.87 7.51 18.43 15.07 42.38 16.42 47.26 5.01 18.21 5.91 44.99 7.95 64.85-12.12 7.09-21.19 5.81-28.15 1.19z" class="bYKvHzWs_13"></path>
    <path id="path6190" sodipodi:nodetypes="cccccccccccccccccccccc" style="fill-rule:evenodd;stroke:#000000;stroke-width:1px;fill:#000000" d="m336.05 257.02c-9.93-21.56-35.68-30.36-58.02-28.95-2.22 7.14 9.99 20.48-5.47 17.46-10.78 1.79-31.01 3.45-28.09 18.89 11.39 6.82 22.55 22.15 8.05 31.98-10.3 17.86-11.48 39.06-14.81 58.98-3.28 28.22-4.95 57.6 3 85.17 6.97 15.75 24.8 1.34 33.74 13.55 9.32 9.17 19.82 2.95 28.02-1.99 10.5-1.07 16.03 1.33 24.49-6.95 6-11.88 11.54-33.45 30.18-36.02 15.21-0.19 32.62-1.16 46.21 7.07 9.72 9.18-3.97 33.76 12.92 35.74 12.9-0.32 25.43 1.91 38.11 3.9 16.29 3.95 20.74-13.74 32.25-20.31 9.18-12.27-9.31-26.13-6.79-40.3-1-23.73 8.7-47.98 1.29-71.29-8.58-15.87-17.85-31.44-23.67-48.61-4.73-13.86-13.22-30.1-29.68-31.38-12.12-1.71-24.82 0.23-32.95 10.02-10.41 8.54-23.59 14.81-37.34 13.1-8.05 0.36-18.41-1.33-21.44-10.06z" class="bYKvHzWs_14"></path>
    <g id="g5730" transform="matrix(.91013 0 0 1.1643 32.063 -74.297)">
      <path id="path9110" sodipodi:nodetypes="ccscccc" style="fill-rule:evenodd;stroke:#000000;stroke-width:3.434;fill:#0044aa" d="m488.93 529.18c-31.07-78.75-199.44-84.06-240.76-13.22-6.76 10.11-33.53 76.39-21.34 90.29 9.64 11 132.75 12.32 197.06 7.59 20.36-5.67 40.9-12.92 61.79-9.61 9.05 1.1 21.88 7.66 26.4-8.87 2.62-9.49-17.48-60.42-23.15-66.18z" class="bYKvHzWs_15"></path>
      <path id="path2185" sodipodi:nodetypes="cccc" style="opacity:.53202;filter:url(#filter2894);fill-rule:evenodd;fill:#bdbfd7" d="m500.05 592.53c-14.52-47.76-31.96-74.35-58.7-98.82-13.06-8.75-58.46-17.33-57.75 4.62 38.54 8.75 79.3 58.61 116.45 94.2z" class="bYKvHzWs_16"></path>
    </g>
    <path id="path4908" sodipodi:nodetypes="cccccccc" style="filter:url(#filter5726);fill-rule:evenodd;fill:#bddce7;fill-opacity:.52023" d="m550.53 321.01c7.59-39.75 0.37-96.52-43.15-111.91-18.39-9.79-83.98-15.98-75.54 10.97 29.88 9.06 29.31 24.52 59.06 27.85-0.44 14.58 12.77 17.16 29.64 22.81 17.43 13.78-24.29 28.95-0.63 36.22 11.94 15.94-10.24 28.54 15.31 36.65 14.16 10.61 19.58-4.87 15.31-22.59z" class="bYKvHzWs_17"></path>
  </g>
  <metadata>
    <rdf:rdf>
      <cc:work>
        <dc:format>image/svg+xml</dc:format>
        <dc:type rdf:resource="http://purl.org/dc/dcmitype/StillImage"></dc:type>
        <cc:license rdf:resource="http://creativecommons.org/licenses/publicdomain/"></cc:license>
        <dc:publisher>
          <cc:agent rdf:about="http://openclipart.org/">
            <dc:title>Openclipart</dc:title>
          </cc:agent>
        </dc:publisher>
        <dc:title>Pluged in coder</dc:title>
        <dc:date>2006-12-26T00:00:00</dc:date>
        <dc:description></dc:description>
        <dc:source>https://openclipart.org/detail/3580/-by--3580</dc:source>
        <dc:creator>
          <cc:agent>
            <dc:title>jongalloway</dc:title>
          </cc:agent>
        </dc:creator>
        <dc:subject>
          <rdf:bag>
            <rdf:li>man</rdf:li>
            <rdf:li>people</rdf:li>
            <rdf:li>programmer</rdf:li>
            <rdf:li>work</rdf:li>
          </rdf:bag>
        </dc:subject>
      </cc:work>
      <cc:license rdf:about="http://creativecommons.org/licenses/publicdomain/">
        <cc:permits rdf:resource="http://creativecommons.org/ns#Reproduction"></cc:permits>
        <cc:permits rdf:resource="http://creativecommons.org/ns#Distribution"></cc:permits>
        <cc:permits rdf:resource="http://creativecommons.org/ns#DerivativeWorks"></cc:permits>
      </cc:license>
    </rdf:rdf>
  </metadata>
<style data-made-with="vivus-instant">.bYKvHzWs_0{stroke-dasharray:1209 1211;stroke-dashoffset:1210;animation:bYKvHzWs_draw_0 4800ms linear 0ms infinite,bYKvHzWs_fade 4800ms linear 0ms infinite;}.bYKvHzWs_1{stroke-dasharray:7471 7473;stroke-dashoffset:7472;animation:bYKvHzWs_draw_1 4800ms linear 0ms infinite,bYKvHzWs_fade 4800ms linear 0ms infinite;}.bYKvHzWs_2{stroke-dasharray:753 755;stroke-dashoffset:754;animation:bYKvHzWs_draw_2 4800ms linear 0ms infinite,bYKvHzWs_fade 4800ms linear 0ms infinite;}.bYKvHzWs_3{stroke-dasharray:130 132;stroke-dashoffset:131;animation:bYKvHzWs_draw_3 4800ms linear 0ms infinite,bYKvHzWs_fade 4800ms linear 0ms infinite;}.bYKvHzWs_4{stroke-dasharray:14 16;stroke-dashoffset:15;animation:bYKvHzWs_draw_4 4800ms linear 0ms infinite,bYKvHzWs_fade 4800ms linear 0ms infinite;}.bYKvHzWs_5{stroke-dasharray:14 16;stroke-dashoffset:15;animation:bYKvHzWs_draw_5 4800ms linear 0ms infinite,bYKvHzWs_fade 4800ms linear 0ms infinite;}.bYKvHzWs_6{stroke-dasharray:14 16;stroke-dashoffset:15;animation:bYKvHzWs_draw_6 4800ms linear 0ms infinite,bYKvHzWs_fade 4800ms linear 0ms infinite;}.bYKvHzWs_7{stroke-dasharray:14 16;stroke-dashoffset:15;animation:bYKvHzWs_draw_7 4800ms linear 0ms infinite,bYKvHzWs_fade 4800ms linear 0ms infinite;}.bYKvHzWs_8{stroke-dasharray:114 116;stroke-dashoffset:115;animation:bYKvHzWs_draw_8 4800ms linear 0ms infinite,bYKvHzWs_fade 4800ms linear 0ms infinite;}.bYKvHzWs_9{stroke-dasharray:77 79;stroke-dashoffset:78;animation:bYKvHzWs_draw_9 4800ms linear 0ms infinite,bYKvHzWs_fade 4800ms linear 0ms infinite;}.bYKvHzWs_10{stroke-dasharray:103 105;stroke-dashoffset:104;animation:bYKvHzWs_draw_10 4800ms linear 0ms infinite,bYKvHzWs_fade 4800ms linear 0ms infinite;}.bYKvHzWs_11{stroke-dasharray:31 33;stroke-dashoffset:32;animation:bYKvHzWs_draw_11 4800ms linear 0ms infinite,bYKvHzWs_fade 4800ms linear 0ms infinite;}.bYKvHzWs_12{stroke-dasharray:137 139;stroke-dashoffset:138;animation:bYKvHzWs_draw_12 4800ms linear 0ms infinite,bYKvHzWs_fade 4800ms linear 0ms infinite;}.bYKvHzWs_13{stroke-dasharray:291 293;stroke-dashoffset:292;animation:bYKvHzWs_draw_13 4800ms linear 0ms infinite,bYKvHzWs_fade 4800ms linear 0ms infinite;}.bYKvHzWs_14{stroke-dasharray:949 951;stroke-dashoffset:950;animation:bYKvHzWs_draw_14 4800ms linear 0ms infinite,bYKvHzWs_fade 4800ms linear 0ms infinite;}.bYKvHzWs_15{stroke-dasharray:740 742;stroke-dashoffset:741;animation:bYKvHzWs_draw_15 4800ms linear 0ms infinite,bYKvHzWs_fade 4800ms linear 0ms infinite;}.bYKvHzWs_16{stroke-dasharray:335 337;stroke-dashoffset:336;animation:bYKvHzWs_draw_16 4800ms linear 0ms infinite,bYKvHzWs_fade 4800ms linear 0ms infinite;}.bYKvHzWs_17{stroke-dasharray:456 458;stroke-dashoffset:457;animation:bYKvHzWs_draw_17 4800ms linear 0ms infinite,bYKvHzWs_fade 4800ms linear 0ms infinite;}@keyframes bYKvHzWs_draw{100%{stroke-dashoffset:0;}}@keyframes bYKvHzWs_fade{0%{stroke-opacity:1;}91.66666666666667%{stroke-opacity:1;}100%{stroke-opacity:0;}}@keyframes bYKvHzWs_draw_0{8.333333333333332%{stroke-dashoffset: 1210}50%{ stroke-dashoffset: 0;}100%{ stroke-dashoffset: 0;}}@keyframes bYKvHzWs_draw_1{9.558823529411764%{stroke-dashoffset: 7472}51.22549019607844%{ stroke-dashoffset: 0;}100%{ stroke-dashoffset: 0;}}@keyframes bYKvHzWs_draw_2{10.784313725490195%{stroke-dashoffset: 754}52.450980392156865%{ stroke-dashoffset: 0;}100%{ stroke-dashoffset: 0;}}@keyframes bYKvHzWs_draw_3{12.009803921568627%{stroke-dashoffset: 131}53.67647058823529%{ stroke-dashoffset: 0;}100%{ stroke-dashoffset: 0;}}@keyframes bYKvHzWs_draw_4{13.23529411764706%{stroke-dashoffset: 15}54.90196078431372%{ stroke-dashoffset: 0;}100%{ stroke-dashoffset: 0;}}@keyframes bYKvHzWs_draw_5{14.460784313725492%{stroke-dashoffset: 15}56.127450980392155%{ stroke-dashoffset: 0;}100%{ stroke-dashoffset: 0;}}@keyframes bYKvHzWs_draw_6{15.686274509803921%{stroke-dashoffset: 15}57.35294117647059%{ stroke-dashoffset: 0;}100%{ stroke-dashoffset: 0;}}@keyframes bYKvHzWs_draw_7{16.911764705882355%{stroke-dashoffset: 15}58.57843137254902%{ stroke-dashoffset: 0;}100%{ stroke-dashoffset: 0;}}@keyframes bYKvHzWs_draw_8{18.137254901960784%{stroke-dashoffset: 115}59.80392156862745%{ stroke-dashoffset: 0;}100%{ stroke-dashoffset: 0;}}@keyframes bYKvHzWs_draw_9{19.362745098039216%{stroke-dashoffset: 78}61.029411764705884%{ stroke-dashoffset: 0;}100%{ stroke-dashoffset: 0;}}@keyframes bYKvHzWs_draw_10{20.588235294117645%{stroke-dashoffset: 104}62.254901960784316%{ stroke-dashoffset: 0;}100%{ stroke-dashoffset: 0;}}@keyframes bYKvHzWs_draw_11{21.813725490196077%{stroke-dashoffset: 32}63.48039215686274%{ stroke-dashoffset: 0;}100%{ stroke-dashoffset: 0;}}@keyframes bYKvHzWs_draw_12{23.03921568627451%{stroke-dashoffset: 138}64.70588235294117%{ stroke-dashoffset: 0;}100%{ stroke-dashoffset: 0;}}@keyframes bYKvHzWs_draw_13{24.26470588235294%{stroke-dashoffset: 292}65.93137254901961%{ stroke-dashoffset: 0;}100%{ stroke-dashoffset: 0;}}@keyframes bYKvHzWs_draw_14{25.49019607843137%{stroke-dashoffset: 950}67.15686274509804%{ stroke-dashoffset: 0;}100%{ stroke-dashoffset: 0;}}@keyframes bYKvHzWs_draw_15{26.715686274509803%{stroke-dashoffset: 741}68.38235294117646%{ stroke-dashoffset: 0;}100%{ stroke-dashoffset: 0;}}@keyframes bYKvHzWs_draw_16{27.941176470588232%{stroke-dashoffset: 336}69.6078431372549%{ stroke-dashoffset: 0;}100%{ stroke-dashoffset: 0;}}@keyframes bYKvHzWs_draw_17{29.166666666666668%{stroke-dashoffset: 457}70.83333333333334%{ stroke-dashoffset: 0;}100%{ stroke-dashoffset: 0;}}</style></svg>
